<mxfile host="Electron" modified="2024-03-12T23:15:27.845Z" agent="Mozilla/5.0 (X11; Linux x86_64) AppleWebKit/537.36 (KHTML, like Gecko) draw.io/24.0.4 Chrome/120.0.6099.109 Electron/28.1.0 Safari/537.36" etag="1aHyUMYleiMJDkj7ay01" version="24.0.4" type="device" pages="4">
  <diagram id="hcBx987hX6C-tzZmgWwV" name="Singleton">
    <mxGraphModel dx="783" dy="453" grid="1" gridSize="10" guides="1" tooltips="1" connect="1" arrows="1" fold="1" page="0" pageScale="1" pageWidth="850" pageHeight="1100" math="0" shadow="0">
      <root>
        <mxCell id="0" />
        <mxCell id="1" parent="0" />
        <mxCell id="5" value="CalculatorHandler" style="swimlane;fontStyle=1;align=center;verticalAlign=top;childLayout=stackLayout;horizontal=1;startSize=26;horizontalStack=0;resizeParent=1;resizeParentMax=0;resizeLast=0;collapsible=1;marginBottom=0;rounded=1;shadow=0;glass=0;strokeColor=#9673a6;fillColor=#e1d5e7;fontSize=12;swimlaneFillColor=none;fillStyle=auto;" parent="1" vertex="1">
          <mxGeometry x="200" y="200" width="310" height="320" as="geometry">
            <mxRectangle x="200" y="200" width="140" height="30" as="alternateBounds" />
          </mxGeometry>
        </mxCell>
        <mxCell id="6" value="- Memory: Float" style="text;strokeColor=none;fillColor=none;align=left;verticalAlign=top;spacingLeft=4;spacingRight=4;overflow=hidden;rotatable=0;points=[[0,0.5],[1,0.5]];portConstraint=eastwest;rounded=0;shadow=0;glass=0;sketch=0;fontFamily=Hack Nerd Font Mono;" parent="5" vertex="1">
          <mxGeometry y="26" width="310" height="26" as="geometry" />
        </mxCell>
        <mxCell id="8" value="- Instance: CalculatorHandler" style="text;strokeColor=none;fillColor=none;align=left;verticalAlign=top;spacingLeft=4;spacingRight=4;overflow=hidden;rotatable=0;points=[[0,0.5],[1,0.5]];portConstraint=eastwest;rounded=0;shadow=0;glass=0;sketch=0;fontFamily=Hack Nerd Font Mono;fontStyle=4" parent="5" vertex="1">
          <mxGeometry y="52" width="310" height="26" as="geometry" />
        </mxCell>
        <mxCell id="7" value="" style="line;strokeWidth=1;fillColor=none;align=left;verticalAlign=middle;spacingTop=-1;spacingLeft=3;spacingRight=3;rotatable=0;labelPosition=right;points=[];portConstraint=eastwest;strokeColor=inherit;rounded=0;shadow=0;glass=0;sketch=0;" parent="5" vertex="1">
          <mxGeometry y="78" width="310" height="8" as="geometry" />
        </mxCell>
        <mxCell id="31iseIiYcjs0HqkfjTfZ-23" style="rounded=0;orthogonalLoop=1;jettySize=auto;html=1;edgeStyle=orthogonalEdgeStyle;startArrow=diamond;startFill=1;fillColor=#f5f5f5;strokeColor=#666666;endArrow=none;endFill=0;endSize=12;startSize=12;" parent="5" source="9" target="5" edge="1">
          <mxGeometry relative="1" as="geometry">
            <Array as="points">
              <mxPoint x="-40" y="99" />
              <mxPoint x="-40" y="-40" />
              <mxPoint x="155" y="-40" />
            </Array>
          </mxGeometry>
        </mxCell>
        <mxCell id="9" value="+ GetInstance(): CalculatorHandler" style="text;strokeColor=none;fillColor=none;align=left;verticalAlign=top;spacingLeft=4;spacingRight=4;overflow=hidden;rotatable=0;points=[[0,0.5],[1,0.5]];portConstraint=eastwest;rounded=0;shadow=0;glass=0;sketch=0;fontFamily=Hack Nerd Font Mono;fontStyle=4" parent="5" vertex="1">
          <mxGeometry y="86" width="310" height="26" as="geometry" />
        </mxCell>
        <mxCell id="10" value="+ GetResult(): Float" style="text;strokeColor=none;fillColor=none;align=left;verticalAlign=top;spacingLeft=4;spacingRight=4;overflow=hidden;rotatable=0;points=[[0,0.5],[1,0.5]];portConstraint=eastwest;rounded=0;shadow=0;glass=0;sketch=0;fontFamily=Hack Nerd Font Mono;" parent="5" vertex="1">
          <mxGeometry y="112" width="310" height="26" as="geometry" />
        </mxCell>
        <mxCell id="11" value="+ Clear(): CalculatorHandler" style="text;strokeColor=none;fillColor=none;align=left;verticalAlign=top;spacingLeft=4;spacingRight=4;overflow=hidden;rotatable=0;points=[[0,0.5],[1,0.5]];portConstraint=eastwest;rounded=0;shadow=0;glass=0;sketch=0;fontFamily=Hack Nerd Font Mono;" parent="5" vertex="1">
          <mxGeometry y="138" width="310" height="26" as="geometry" />
        </mxCell>
        <mxCell id="12" value="+ SetValue(int value): CalculatorHandler" style="text;strokeColor=none;fillColor=none;align=left;verticalAlign=top;spacingLeft=4;spacingRight=4;overflow=hidden;rotatable=0;points=[[0,0.5],[1,0.5]];portConstraint=eastwest;rounded=0;shadow=0;glass=0;sketch=0;fontFamily=Hack Nerd Font Mono;" parent="5" vertex="1">
          <mxGeometry y="164" width="310" height="26" as="geometry" />
        </mxCell>
        <mxCell id="13" value="+ Add(int value): CalculatorHandler" style="text;strokeColor=none;fillColor=none;align=left;verticalAlign=top;spacingLeft=4;spacingRight=4;overflow=hidden;rotatable=0;points=[[0,0.5],[1,0.5]];portConstraint=eastwest;rounded=0;shadow=0;glass=0;sketch=0;fontFamily=Hack Nerd Font Mono;" parent="5" vertex="1">
          <mxGeometry y="190" width="310" height="26" as="geometry" />
        </mxCell>
        <mxCell id="14" value="+ Subtract(int value): CalculatorHandler" style="text;strokeColor=none;fillColor=none;align=left;verticalAlign=top;spacingLeft=4;spacingRight=4;overflow=hidden;rotatable=0;points=[[0,0.5],[1,0.5]];portConstraint=eastwest;rounded=0;shadow=0;glass=0;sketch=0;fontFamily=Hack Nerd Font Mono;" parent="5" vertex="1">
          <mxGeometry y="216" width="310" height="26" as="geometry" />
        </mxCell>
        <mxCell id="15" value="+ Multiply(int value): CalculatorHandler" style="text;strokeColor=none;fillColor=none;align=left;verticalAlign=top;spacingLeft=4;spacingRight=4;overflow=hidden;rotatable=0;points=[[0,0.5],[1,0.5]];portConstraint=eastwest;rounded=0;shadow=0;glass=0;sketch=0;fontFamily=Hack Nerd Font Mono;" parent="5" vertex="1">
          <mxGeometry y="242" width="310" height="26" as="geometry" />
        </mxCell>
        <mxCell id="16" value="+ Divide(int value): CalculatorHandler" style="text;strokeColor=none;fillColor=none;align=left;verticalAlign=top;spacingLeft=4;spacingRight=4;overflow=hidden;rotatable=0;points=[[0,0.5],[1,0.5]];portConstraint=eastwest;rounded=0;shadow=0;glass=0;sketch=0;fontFamily=Hack Nerd Font Mono;" parent="5" vertex="1">
          <mxGeometry y="268" width="310" height="26" as="geometry" />
        </mxCell>
        <mxCell id="17" value="+ Modulus(int value): CalculatorHandler" style="text;strokeColor=none;fillColor=none;align=left;verticalAlign=top;spacingLeft=4;spacingRight=4;overflow=hidden;rotatable=0;points=[[0,0.5],[1,0.5]];portConstraint=eastwest;rounded=0;shadow=0;glass=0;sketch=0;fontFamily=Hack Nerd Font Mono;" parent="5" vertex="1">
          <mxGeometry y="294" width="310" height="26" as="geometry" />
        </mxCell>
        <mxCell id="31iseIiYcjs0HqkfjTfZ-21" style="rounded=0;orthogonalLoop=1;jettySize=auto;html=1;startArrow=none;startFill=0;endArrow=open;endFill=0;endSize=12;startSize=12;fillColor=#f5f5f5;strokeColor=#666666;" parent="1" source="mahSxEBkRQbgHBF6PlI8-20" target="5" edge="1">
          <mxGeometry relative="1" as="geometry" />
        </mxCell>
        <mxCell id="mahSxEBkRQbgHBF6PlI8-20" value="Program" style="swimlane;fontStyle=1;align=center;verticalAlign=top;childLayout=stackLayout;horizontal=1;startSize=30;horizontalStack=0;resizeParent=1;resizeParentMax=0;resizeLast=0;collapsible=1;marginBottom=0;fillColor=#e1d5e7;strokeColor=#9673a6;rounded=1;" vertex="1" parent="1">
          <mxGeometry x="600" y="321" width="160" height="78" as="geometry" />
        </mxCell>
        <mxCell id="mahSxEBkRQbgHBF6PlI8-27" value="" style="text;strokeColor=none;fillColor=none;align=left;verticalAlign=middle;spacingTop=-1;spacingLeft=4;spacingRight=4;rotatable=0;labelPosition=right;points=[];portConstraint=eastwest;" vertex="1" parent="mahSxEBkRQbgHBF6PlI8-20">
          <mxGeometry y="30" width="160" height="14" as="geometry" />
        </mxCell>
        <mxCell id="mahSxEBkRQbgHBF6PlI8-24" value="" style="line;strokeWidth=1;fillColor=none;align=left;verticalAlign=middle;spacingTop=-1;spacingLeft=3;spacingRight=3;rotatable=0;labelPosition=right;points=[];portConstraint=eastwest;strokeColor=inherit;" vertex="1" parent="mahSxEBkRQbgHBF6PlI8-20">
          <mxGeometry y="44" width="160" height="8" as="geometry" />
        </mxCell>
        <mxCell id="mahSxEBkRQbgHBF6PlI8-25" value="+ Main()" style="text;strokeColor=none;fillColor=none;align=left;verticalAlign=top;spacingLeft=4;spacingRight=4;overflow=hidden;rotatable=0;points=[[0,0.5],[1,0.5]];portConstraint=eastwest;fontFamily=Hack Nerd Font Mono;fontStyle=4" vertex="1" parent="mahSxEBkRQbgHBF6PlI8-20">
          <mxGeometry y="52" width="160" height="26" as="geometry" />
        </mxCell>
      </root>
    </mxGraphModel>
  </diagram>
  <diagram id="EEBMuNbeYnzKQcDVJGOE" name="Factory Method">
    <mxGraphModel dx="1625" dy="310" grid="1" gridSize="10" guides="1" tooltips="1" connect="1" arrows="1" fold="1" page="0" pageScale="1" pageWidth="850" pageHeight="1100" math="0" shadow="0">
      <root>
        <mxCell id="0" />
        <mxCell id="1" parent="0" />
        <mxCell id="pYGkhnA3H9Tf39L96m0L-5" value="«interface»&#xa;IValueObject" style="swimlane;fontStyle=1;align=center;verticalAlign=top;childLayout=stackLayout;horizontal=1;startSize=40;horizontalStack=0;resizeParent=1;resizeParentMax=0;resizeLast=0;collapsible=1;marginBottom=0;fillColor=#e1d5e7;strokeColor=#9673a6;rounded=1;" parent="1" vertex="1">
          <mxGeometry x="317.5" y="480" width="160" height="114" as="geometry" />
        </mxCell>
        <mxCell id="wgCOfWzjoMNXxty_1dxA-5" value="" style="text;strokeColor=none;fillColor=none;align=left;verticalAlign=middle;spacingTop=-1;spacingLeft=4;spacingRight=4;rotatable=0;labelPosition=right;points=[];portConstraint=eastwest;" vertex="1" parent="pYGkhnA3H9Tf39L96m0L-5">
          <mxGeometry y="40" width="160" height="14" as="geometry" />
        </mxCell>
        <mxCell id="pYGkhnA3H9Tf39L96m0L-7" value="" style="line;strokeWidth=1;fillColor=none;align=left;verticalAlign=middle;spacingTop=-1;spacingLeft=3;spacingRight=3;rotatable=0;labelPosition=right;points=[];portConstraint=eastwest;strokeColor=inherit;" parent="pYGkhnA3H9Tf39L96m0L-5" vertex="1">
          <mxGeometry y="54" width="160" height="8" as="geometry" />
        </mxCell>
        <mxCell id="pYGkhnA3H9Tf39L96m0L-8" value="+ GetValue(): Type" style="text;strokeColor=none;fillColor=none;align=left;verticalAlign=top;spacingLeft=4;spacingRight=4;overflow=hidden;rotatable=0;points=[[0,0.5],[1,0.5]];portConstraint=eastwest;fontFamily=Hack Nerd Font Mono;" parent="pYGkhnA3H9Tf39L96m0L-5" vertex="1">
          <mxGeometry y="62" width="160" height="26" as="geometry" />
        </mxCell>
        <mxCell id="31x80FJVaQtLXL7DMqQq-1" value="+ IsValid(): Boolean" style="text;strokeColor=none;fillColor=none;align=left;verticalAlign=top;spacingLeft=4;spacingRight=4;overflow=hidden;rotatable=0;points=[[0,0.5],[1,0.5]];portConstraint=eastwest;fontFamily=Hack Nerd Font Mono;" parent="pYGkhnA3H9Tf39L96m0L-5" vertex="1">
          <mxGeometry y="88" width="160" height="26" as="geometry" />
        </mxCell>
        <mxCell id="YW9sjmkYDDz6GsdcyHox-3" style="edgeStyle=none;shape=connector;rounded=1;html=1;labelBackgroundColor=default;strokeColor=#666666;fontFamily=Helvetica;fontSize=12;fontColor=default;endArrow=block;endFill=0;startSize=12;endSize=12;fillColor=#f5f5f5;dashed=1;" parent="1" source="31x80FJVaQtLXL7DMqQq-2" target="pYGkhnA3H9Tf39L96m0L-5" edge="1">
          <mxGeometry relative="1" as="geometry" />
        </mxCell>
        <mxCell id="31x80FJVaQtLXL7DMqQq-2" value="IdValueObject" style="swimlane;fontStyle=1;align=center;verticalAlign=top;childLayout=stackLayout;horizontal=1;startSize=30;horizontalStack=0;resizeParent=1;resizeParentMax=0;resizeLast=0;collapsible=1;marginBottom=0;fillColor=#e1d5e7;strokeColor=#9673a6;rounded=1;" parent="1" vertex="1">
          <mxGeometry x="-80" y="740" width="280" height="116" as="geometry" />
        </mxCell>
        <mxCell id="31x80FJVaQtLXL7DMqQq-4" value="- id: Integer" style="text;strokeColor=none;fillColor=none;align=left;verticalAlign=top;spacingLeft=4;spacingRight=4;overflow=hidden;rotatable=0;points=[[0,0.5],[1,0.5]];portConstraint=eastwest;fontFamily=Hack Nerd Font Mono;" parent="31x80FJVaQtLXL7DMqQq-2" vertex="1">
          <mxGeometry y="30" width="280" height="26" as="geometry" />
        </mxCell>
        <mxCell id="YW9sjmkYDDz6GsdcyHox-5" value="- MIN_VALUE: Integer const = 1" style="text;strokeColor=none;fillColor=none;align=left;verticalAlign=top;spacingLeft=4;spacingRight=4;overflow=hidden;rotatable=0;points=[[0,0.5],[1,0.5]];portConstraint=eastwest;fontFamily=Hack Nerd Font Mono;" parent="31x80FJVaQtLXL7DMqQq-2" vertex="1">
          <mxGeometry y="56" width="280" height="26" as="geometry" />
        </mxCell>
        <mxCell id="31x80FJVaQtLXL7DMqQq-3" value="" style="line;strokeWidth=1;fillColor=none;align=left;verticalAlign=middle;spacingTop=-1;spacingLeft=3;spacingRight=3;rotatable=0;labelPosition=right;points=[];portConstraint=eastwest;strokeColor=inherit;" parent="31x80FJVaQtLXL7DMqQq-2" vertex="1">
          <mxGeometry y="82" width="280" height="8" as="geometry" />
        </mxCell>
        <mxCell id="YW9sjmkYDDz6GsdcyHox-4" value="+ «create» IdValueObject(id: Integer)" style="text;strokeColor=none;fillColor=none;align=left;verticalAlign=top;spacingLeft=4;spacingRight=4;overflow=hidden;rotatable=0;points=[[0,0.5],[1,0.5]];portConstraint=eastwest;fontFamily=Hack Nerd Font Mono;" parent="31x80FJVaQtLXL7DMqQq-2" vertex="1">
          <mxGeometry y="90" width="280" height="26" as="geometry" />
        </mxCell>
        <mxCell id="YW9sjmkYDDz6GsdcyHox-12" style="edgeStyle=none;shape=connector;rounded=1;html=1;labelBackgroundColor=default;strokeColor=#666666;fontFamily=Helvetica;fontSize=12;fontColor=default;endArrow=block;endFill=0;startSize=12;endSize=12;fillColor=#f5f5f5;dashed=1;" parent="1" source="YW9sjmkYDDz6GsdcyHox-6" target="pYGkhnA3H9Tf39L96m0L-5" edge="1">
          <mxGeometry relative="1" as="geometry" />
        </mxCell>
        <mxCell id="YW9sjmkYDDz6GsdcyHox-6" value="NameValueObject" style="swimlane;fontStyle=1;align=center;verticalAlign=top;childLayout=stackLayout;horizontal=1;startSize=30;horizontalStack=0;resizeParent=1;resizeParentMax=0;resizeLast=0;collapsible=1;marginBottom=0;fillColor=#e1d5e7;strokeColor=#9673a6;rounded=1;" parent="1" vertex="1">
          <mxGeometry x="250" y="740" width="300" height="142" as="geometry" />
        </mxCell>
        <mxCell id="YW9sjmkYDDz6GsdcyHox-7" value="- name: String" style="text;strokeColor=none;fillColor=none;align=left;verticalAlign=top;spacingLeft=4;spacingRight=4;overflow=hidden;rotatable=0;points=[[0,0.5],[1,0.5]];portConstraint=eastwest;fontFamily=Hack Nerd Font Mono;" parent="YW9sjmkYDDz6GsdcyHox-6" vertex="1">
          <mxGeometry y="30" width="300" height="26" as="geometry" />
        </mxCell>
        <mxCell id="YW9sjmkYDDz6GsdcyHox-11" value="- MIN_LENGTH: Integer const = 3" style="text;strokeColor=none;fillColor=none;align=left;verticalAlign=top;spacingLeft=4;spacingRight=4;overflow=hidden;rotatable=0;points=[[0,0.5],[1,0.5]];portConstraint=eastwest;fontFamily=Hack Nerd Font Mono;" parent="YW9sjmkYDDz6GsdcyHox-6" vertex="1">
          <mxGeometry y="56" width="300" height="26" as="geometry" />
        </mxCell>
        <mxCell id="YW9sjmkYDDz6GsdcyHox-8" value="- MAX_LENGTH: Integer const = 100" style="text;strokeColor=none;fillColor=none;align=left;verticalAlign=top;spacingLeft=4;spacingRight=4;overflow=hidden;rotatable=0;points=[[0,0.5],[1,0.5]];portConstraint=eastwest;fontFamily=Hack Nerd Font Mono;" parent="YW9sjmkYDDz6GsdcyHox-6" vertex="1">
          <mxGeometry y="82" width="300" height="26" as="geometry" />
        </mxCell>
        <mxCell id="YW9sjmkYDDz6GsdcyHox-9" value="" style="line;strokeWidth=1;fillColor=none;align=left;verticalAlign=middle;spacingTop=-1;spacingLeft=3;spacingRight=3;rotatable=0;labelPosition=right;points=[];portConstraint=eastwest;strokeColor=inherit;" parent="YW9sjmkYDDz6GsdcyHox-6" vertex="1">
          <mxGeometry y="108" width="300" height="8" as="geometry" />
        </mxCell>
        <mxCell id="YW9sjmkYDDz6GsdcyHox-10" value="+ «create» NameValueObject(name: String)" style="text;strokeColor=none;fillColor=none;align=left;verticalAlign=top;spacingLeft=4;spacingRight=4;overflow=hidden;rotatable=0;points=[[0,0.5],[1,0.5]];portConstraint=eastwest;fontFamily=Hack Nerd Font Mono;" parent="YW9sjmkYDDz6GsdcyHox-6" vertex="1">
          <mxGeometry y="116" width="300" height="26" as="geometry" />
        </mxCell>
        <mxCell id="YW9sjmkYDDz6GsdcyHox-19" style="edgeStyle=none;shape=connector;rounded=1;html=1;labelBackgroundColor=default;strokeColor=#666666;fontFamily=Helvetica;fontSize=12;fontColor=default;endArrow=block;endFill=0;startSize=12;endSize=12;fillColor=#f5f5f5;dashed=1;" parent="1" source="YW9sjmkYDDz6GsdcyHox-13" target="pYGkhnA3H9Tf39L96m0L-5" edge="1">
          <mxGeometry relative="1" as="geometry" />
        </mxCell>
        <mxCell id="YW9sjmkYDDz6GsdcyHox-13" value="EnabledValueObject" style="swimlane;fontStyle=1;align=center;verticalAlign=top;childLayout=stackLayout;horizontal=1;startSize=30;horizontalStack=0;resizeParent=1;resizeParentMax=0;resizeLast=0;collapsible=1;marginBottom=0;fillColor=#e1d5e7;strokeColor=#9673a6;rounded=1;" parent="1" vertex="1">
          <mxGeometry x="600" y="740" width="350" height="90" as="geometry" />
        </mxCell>
        <mxCell id="YW9sjmkYDDz6GsdcyHox-14" value="- enable: Boolean" style="text;strokeColor=none;fillColor=none;align=left;verticalAlign=top;spacingLeft=4;spacingRight=4;overflow=hidden;rotatable=0;points=[[0,0.5],[1,0.5]];portConstraint=eastwest;fontFamily=Hack Nerd Font Mono;" parent="YW9sjmkYDDz6GsdcyHox-13" vertex="1">
          <mxGeometry y="30" width="350" height="26" as="geometry" />
        </mxCell>
        <mxCell id="YW9sjmkYDDz6GsdcyHox-17" value="" style="line;strokeWidth=1;fillColor=none;align=left;verticalAlign=middle;spacingTop=-1;spacingLeft=3;spacingRight=3;rotatable=0;labelPosition=right;points=[];portConstraint=eastwest;strokeColor=inherit;" parent="YW9sjmkYDDz6GsdcyHox-13" vertex="1">
          <mxGeometry y="56" width="350" height="8" as="geometry" />
        </mxCell>
        <mxCell id="YW9sjmkYDDz6GsdcyHox-18" value="+ «create» EnabledValueObject(enable: Boolean)" style="text;strokeColor=none;fillColor=none;align=left;verticalAlign=top;spacingLeft=4;spacingRight=4;overflow=hidden;rotatable=0;points=[[0,0.5],[1,0.5]];portConstraint=eastwest;fontFamily=Hack Nerd Font Mono;" parent="YW9sjmkYDDz6GsdcyHox-13" vertex="1">
          <mxGeometry y="64" width="350" height="26" as="geometry" />
        </mxCell>
        <mxCell id="tj_r2iyNX81mgRMXWCMt-7" style="edgeStyle=none;shape=connector;rounded=1;html=1;labelBackgroundColor=default;strokeColor=#666666;fontFamily=Helvetica;fontSize=12;fontColor=default;endArrow=block;endFill=0;startSize=12;endSize=12;fillColor=#f5f5f5;" parent="1" source="tj_r2iyNX81mgRMXWCMt-3" target="YW9sjmkYDDz6GsdcyHox-20" edge="1">
          <mxGeometry relative="1" as="geometry" />
        </mxCell>
        <mxCell id="u-KN2Wzc06eG517K6Wmt-1" style="rounded=1;orthogonalLoop=1;jettySize=auto;html=1;strokeColor=#666666;align=center;verticalAlign=middle;fontFamily=Helvetica;fontSize=12;fontColor=default;labelBackgroundColor=default;startArrow=diamond;startFill=0;startSize=12;endArrow=none;endFill=0;endSize=12;fillColor=#f5f5f5;" parent="1" source="tj_r2iyNX81mgRMXWCMt-3" target="31x80FJVaQtLXL7DMqQq-2" edge="1">
          <mxGeometry relative="1" as="geometry" />
        </mxCell>
        <mxCell id="tj_r2iyNX81mgRMXWCMt-3" value="IdValueObjectHandler" style="swimlane;fontStyle=1;align=center;verticalAlign=top;childLayout=stackLayout;horizontal=1;startSize=30;horizontalStack=0;resizeParent=1;resizeParentMax=0;resizeLast=0;collapsible=1;marginBottom=0;fillColor=#e1d5e7;strokeColor=#9673a6;rounded=1;" parent="1" vertex="1">
          <mxGeometry x="-300" y="980" width="442.5" height="78" as="geometry" />
        </mxCell>
        <mxCell id="wgCOfWzjoMNXxty_1dxA-2" value="" style="text;strokeColor=none;fillColor=none;align=left;verticalAlign=middle;spacingTop=-1;spacingLeft=4;spacingRight=4;rotatable=0;labelPosition=right;points=[];portConstraint=eastwest;" vertex="1" parent="tj_r2iyNX81mgRMXWCMt-3">
          <mxGeometry y="30" width="442.5" height="14" as="geometry" />
        </mxCell>
        <mxCell id="tj_r2iyNX81mgRMXWCMt-4" value="" style="line;strokeWidth=1;fillColor=none;align=left;verticalAlign=middle;spacingTop=-1;spacingLeft=3;spacingRight=3;rotatable=0;labelPosition=right;points=[];portConstraint=eastwest;strokeColor=inherit;" parent="tj_r2iyNX81mgRMXWCMt-3" vertex="1">
          <mxGeometry y="44" width="442.5" height="8" as="geometry" />
        </mxCell>
        <mxCell id="tj_r2iyNX81mgRMXWCMt-8" value="+ /CreateValueObject(valuel: Integer): IValueObject&lt;Integer&gt;" style="text;strokeColor=none;fillColor=none;align=left;verticalAlign=top;spacingLeft=4;spacingRight=4;overflow=hidden;rotatable=0;points=[[0,0.5],[1,0.5]];portConstraint=eastwest;fontFamily=Hack Nerd Font Mono;fontStyle=0" parent="tj_r2iyNX81mgRMXWCMt-3" vertex="1">
          <mxGeometry y="52" width="442.5" height="26" as="geometry" />
        </mxCell>
        <mxCell id="tj_r2iyNX81mgRMXWCMt-12" style="shape=connector;rounded=1;html=1;labelBackgroundColor=default;strokeColor=#666666;fontFamily=Helvetica;fontSize=12;fontColor=default;endArrow=block;endFill=0;startSize=12;endSize=12;fillColor=#f5f5f5;" parent="1" source="tj_r2iyNX81mgRMXWCMt-9" target="YW9sjmkYDDz6GsdcyHox-20" edge="1">
          <mxGeometry relative="1" as="geometry" />
        </mxCell>
        <mxCell id="u-KN2Wzc06eG517K6Wmt-2" style="rounded=1;orthogonalLoop=1;jettySize=auto;html=1;strokeColor=#666666;align=center;verticalAlign=middle;fontFamily=Helvetica;fontSize=12;fontColor=default;labelBackgroundColor=default;startArrow=diamond;startFill=0;startSize=12;endArrow=none;endFill=0;endSize=12;fillColor=#f5f5f5;" parent="1" source="tj_r2iyNX81mgRMXWCMt-9" target="YW9sjmkYDDz6GsdcyHox-6" edge="1">
          <mxGeometry relative="1" as="geometry" />
        </mxCell>
        <mxCell id="tj_r2iyNX81mgRMXWCMt-9" value="NameValueObjectHandler" style="swimlane;fontStyle=1;align=center;verticalAlign=top;childLayout=stackLayout;horizontal=1;startSize=30;horizontalStack=0;resizeParent=1;resizeParentMax=0;resizeLast=0;collapsible=1;marginBottom=0;fillColor=#e1d5e7;strokeColor=#9673a6;rounded=1;" parent="1" vertex="1">
          <mxGeometry x="178.75" y="980" width="442.5" height="78" as="geometry" />
        </mxCell>
        <mxCell id="wgCOfWzjoMNXxty_1dxA-3" value="" style="text;strokeColor=none;fillColor=none;align=left;verticalAlign=middle;spacingTop=-1;spacingLeft=4;spacingRight=4;rotatable=0;labelPosition=right;points=[];portConstraint=eastwest;" vertex="1" parent="tj_r2iyNX81mgRMXWCMt-9">
          <mxGeometry y="30" width="442.5" height="14" as="geometry" />
        </mxCell>
        <mxCell id="tj_r2iyNX81mgRMXWCMt-10" value="" style="line;strokeWidth=1;fillColor=none;align=left;verticalAlign=middle;spacingTop=-1;spacingLeft=3;spacingRight=3;rotatable=0;labelPosition=right;points=[];portConstraint=eastwest;strokeColor=inherit;" parent="tj_r2iyNX81mgRMXWCMt-9" vertex="1">
          <mxGeometry y="44" width="442.5" height="8" as="geometry" />
        </mxCell>
        <mxCell id="tj_r2iyNX81mgRMXWCMt-11" value="+ /CreateValueObject(valuel: String): IValueObject&lt;String&gt;" style="text;strokeColor=none;fillColor=none;align=left;verticalAlign=top;spacingLeft=4;spacingRight=4;overflow=hidden;rotatable=0;points=[[0,0.5],[1,0.5]];portConstraint=eastwest;fontFamily=Hack Nerd Font Mono;fontStyle=0" parent="tj_r2iyNX81mgRMXWCMt-9" vertex="1">
          <mxGeometry y="52" width="442.5" height="26" as="geometry" />
        </mxCell>
        <mxCell id="tj_r2iyNX81mgRMXWCMt-16" style="shape=connector;rounded=1;html=1;labelBackgroundColor=default;strokeColor=#666666;fontFamily=Helvetica;fontSize=12;fontColor=default;endArrow=block;endFill=0;startSize=12;endSize=12;fillColor=#f5f5f5;" parent="1" source="tj_r2iyNX81mgRMXWCMt-13" target="YW9sjmkYDDz6GsdcyHox-20" edge="1">
          <mxGeometry relative="1" as="geometry" />
        </mxCell>
        <mxCell id="u-KN2Wzc06eG517K6Wmt-3" style="rounded=1;orthogonalLoop=1;jettySize=auto;html=1;strokeColor=#666666;align=center;verticalAlign=middle;fontFamily=Helvetica;fontSize=12;fontColor=default;labelBackgroundColor=default;startArrow=diamond;startFill=0;startSize=12;endArrow=none;endFill=0;endSize=12;fillColor=#f5f5f5;" parent="1" source="tj_r2iyNX81mgRMXWCMt-13" target="YW9sjmkYDDz6GsdcyHox-13" edge="1">
          <mxGeometry relative="1" as="geometry" />
        </mxCell>
        <mxCell id="tj_r2iyNX81mgRMXWCMt-13" value="EnabledValueObjectHandler" style="swimlane;fontStyle=1;align=center;verticalAlign=top;childLayout=stackLayout;horizontal=1;startSize=30;horizontalStack=0;resizeParent=1;resizeParentMax=0;resizeLast=0;collapsible=1;marginBottom=0;fillColor=#e1d5e7;strokeColor=#9673a6;rounded=1;" parent="1" vertex="1">
          <mxGeometry x="660" y="980" width="442.5" height="78" as="geometry" />
        </mxCell>
        <mxCell id="wgCOfWzjoMNXxty_1dxA-4" value="" style="text;strokeColor=none;fillColor=none;align=left;verticalAlign=middle;spacingTop=-1;spacingLeft=4;spacingRight=4;rotatable=0;labelPosition=right;points=[];portConstraint=eastwest;" vertex="1" parent="tj_r2iyNX81mgRMXWCMt-13">
          <mxGeometry y="30" width="442.5" height="14" as="geometry" />
        </mxCell>
        <mxCell id="tj_r2iyNX81mgRMXWCMt-14" value="" style="line;strokeWidth=1;fillColor=none;align=left;verticalAlign=middle;spacingTop=-1;spacingLeft=3;spacingRight=3;rotatable=0;labelPosition=right;points=[];portConstraint=eastwest;strokeColor=inherit;" parent="tj_r2iyNX81mgRMXWCMt-13" vertex="1">
          <mxGeometry y="44" width="442.5" height="8" as="geometry" />
        </mxCell>
        <mxCell id="tj_r2iyNX81mgRMXWCMt-15" value="+ /CreateValueObject(valuel: String): IValueObject&lt;String&gt;" style="text;strokeColor=none;fillColor=none;align=left;verticalAlign=top;spacingLeft=4;spacingRight=4;overflow=hidden;rotatable=0;points=[[0,0.5],[1,0.5]];portConstraint=eastwest;fontFamily=Hack Nerd Font Mono;fontStyle=0" parent="tj_r2iyNX81mgRMXWCMt-13" vertex="1">
          <mxGeometry y="52" width="442.5" height="26" as="geometry" />
        </mxCell>
        <mxCell id="wEd0wZoPoZdmiyUxhaNI-11" style="shape=connector;rounded=1;html=1;labelBackgroundColor=default;strokeColor=#666666;fontFamily=Helvetica;fontSize=12;fontColor=default;endArrow=open;endFill=0;startSize=12;endSize=12;fillColor=#f5f5f5;startArrow=none;startFill=0;" parent="1" source="tj_r2iyNX81mgRMXWCMt-18" target="tj_r2iyNX81mgRMXWCMt-3" edge="1">
          <mxGeometry relative="1" as="geometry" />
        </mxCell>
        <mxCell id="wEd0wZoPoZdmiyUxhaNI-13" style="shape=connector;rounded=1;html=1;labelBackgroundColor=default;strokeColor=#666666;fontFamily=Helvetica;fontSize=12;fontColor=default;endArrow=open;endFill=0;startSize=12;endSize=12;fillColor=#f5f5f5;align=center;verticalAlign=middle;startArrow=none;startFill=0;" parent="1" source="tj_r2iyNX81mgRMXWCMt-18" target="tj_r2iyNX81mgRMXWCMt-9" edge="1">
          <mxGeometry relative="1" as="geometry" />
        </mxCell>
        <mxCell id="wEd0wZoPoZdmiyUxhaNI-14" style="shape=connector;rounded=1;html=1;labelBackgroundColor=default;strokeColor=#666666;fontFamily=Helvetica;fontSize=12;fontColor=default;endArrow=open;endFill=0;startSize=12;endSize=12;fillColor=#f5f5f5;align=center;verticalAlign=middle;startArrow=none;startFill=0;" parent="1" source="tj_r2iyNX81mgRMXWCMt-18" target="tj_r2iyNX81mgRMXWCMt-13" edge="1">
          <mxGeometry relative="1" as="geometry" />
        </mxCell>
        <mxCell id="17_s5IqSBcqcAf6VlfhR-1" style="rounded=1;orthogonalLoop=1;jettySize=auto;html=1;strokeColor=#666666;align=center;verticalAlign=middle;fontFamily=Helvetica;fontSize=12;fontColor=default;labelBackgroundColor=default;startArrow=none;startFill=0;startSize=12;endArrow=none;endFill=0;endSize=12;fillColor=#f5f5f5;" parent="1" source="tj_r2iyNX81mgRMXWCMt-18" target="YW9sjmkYDDz6GsdcyHox-20" edge="1">
          <mxGeometry relative="1" as="geometry" />
        </mxCell>
        <mxCell id="tj_r2iyNX81mgRMXWCMt-18" value="Program" style="swimlane;fontStyle=1;align=center;verticalAlign=top;childLayout=stackLayout;horizontal=1;startSize=30;horizontalStack=0;resizeParent=1;resizeParentMax=0;resizeLast=0;collapsible=1;marginBottom=0;fillColor=#e1d5e7;strokeColor=#9673a6;rounded=1;" parent="1" vertex="1">
          <mxGeometry x="550" y="1280" width="350" height="168" as="geometry" />
        </mxCell>
        <mxCell id="tj_r2iyNX81mgRMXWCMt-19" value="- PersonIdHandler: ValueObjectHandlerBase" style="text;strokeColor=none;fillColor=none;align=left;verticalAlign=top;spacingLeft=4;spacingRight=4;overflow=hidden;rotatable=0;points=[[0,0.5],[1,0.5]];portConstraint=eastwest;fontFamily=Hack Nerd Font Mono;fontStyle=4" parent="tj_r2iyNX81mgRMXWCMt-18" vertex="1">
          <mxGeometry y="30" width="350" height="26" as="geometry" />
        </mxCell>
        <mxCell id="tj_r2iyNX81mgRMXWCMt-20" value="- PersonNameHandler: ValueObjectHandlerBase" style="text;strokeColor=none;fillColor=none;align=left;verticalAlign=top;spacingLeft=4;spacingRight=4;overflow=hidden;rotatable=0;points=[[0,0.5],[1,0.5]];portConstraint=eastwest;fontFamily=Hack Nerd Font Mono;fontStyle=4" parent="tj_r2iyNX81mgRMXWCMt-18" vertex="1">
          <mxGeometry y="56" width="350" height="26" as="geometry" />
        </mxCell>
        <mxCell id="tj_r2iyNX81mgRMXWCMt-23" value="- PersonEnabledHandler: ValueObjectHandlerBase" style="text;strokeColor=none;fillColor=none;align=left;verticalAlign=top;spacingLeft=4;spacingRight=4;overflow=hidden;rotatable=0;points=[[0,0.5],[1,0.5]];portConstraint=eastwest;fontFamily=Hack Nerd Font Mono;fontStyle=4" parent="tj_r2iyNX81mgRMXWCMt-18" vertex="1">
          <mxGeometry y="82" width="350" height="26" as="geometry" />
        </mxCell>
        <mxCell id="tj_r2iyNX81mgRMXWCMt-21" value="" style="line;strokeWidth=1;fillColor=none;align=left;verticalAlign=middle;spacingTop=-1;spacingLeft=3;spacingRight=3;rotatable=0;labelPosition=right;points=[];portConstraint=eastwest;strokeColor=inherit;" parent="tj_r2iyNX81mgRMXWCMt-18" vertex="1">
          <mxGeometry y="108" width="350" height="8" as="geometry" />
        </mxCell>
        <mxCell id="tj_r2iyNX81mgRMXWCMt-22" value="+ Main()" style="text;strokeColor=none;fillColor=none;align=left;verticalAlign=top;spacingLeft=4;spacingRight=4;overflow=hidden;rotatable=0;points=[[0,0.5],[1,0.5]];portConstraint=eastwest;fontFamily=Hack Nerd Font Mono;fontStyle=4" parent="tj_r2iyNX81mgRMXWCMt-18" vertex="1">
          <mxGeometry y="116" width="350" height="26" as="geometry" />
        </mxCell>
        <mxCell id="tj_r2iyNX81mgRMXWCMt-24" value="+ Configure(typeValue: String)" style="text;strokeColor=none;fillColor=none;align=left;verticalAlign=top;spacingLeft=4;spacingRight=4;overflow=hidden;rotatable=0;points=[[0,0.5],[1,0.5]];portConstraint=eastwest;fontFamily=Hack Nerd Font Mono;fontStyle=4" parent="tj_r2iyNX81mgRMXWCMt-18" vertex="1">
          <mxGeometry y="142" width="350" height="26" as="geometry" />
        </mxCell>
        <mxCell id="9zRti0-3QmrPkJPcq3Wf-1" value="" style="group" vertex="1" connectable="0" parent="1">
          <mxGeometry x="-50" y="1290" width="420.5" height="125" as="geometry" />
        </mxCell>
        <mxCell id="YW9sjmkYDDz6GsdcyHox-20" value="«abstract»&#xa;ValueObjectHandlerBase" style="swimlane;fontStyle=1;align=center;verticalAlign=top;childLayout=stackLayout;horizontal=1;startSize=40;horizontalStack=0;resizeParent=1;resizeParentMax=0;resizeLast=0;collapsible=1;marginBottom=0;fillColor=#e1d5e7;strokeColor=#9673a6;rounded=1;" parent="9zRti0-3QmrPkJPcq3Wf-1" vertex="1">
          <mxGeometry y="11" width="410" height="114" as="geometry" />
        </mxCell>
        <mxCell id="wgCOfWzjoMNXxty_1dxA-1" value="" style="text;strokeColor=none;fillColor=none;align=left;verticalAlign=middle;spacingTop=-1;spacingLeft=4;spacingRight=4;rotatable=0;labelPosition=right;points=[];portConstraint=eastwest;" vertex="1" parent="YW9sjmkYDDz6GsdcyHox-20">
          <mxGeometry y="40" width="410" height="14" as="geometry" />
        </mxCell>
        <mxCell id="YW9sjmkYDDz6GsdcyHox-21" value="" style="line;strokeWidth=1;fillColor=none;align=left;verticalAlign=middle;spacingTop=-1;spacingLeft=3;spacingRight=3;rotatable=0;labelPosition=right;points=[];portConstraint=eastwest;strokeColor=inherit;" parent="YW9sjmkYDDz6GsdcyHox-20" vertex="1">
          <mxGeometry y="54" width="410" height="8" as="geometry" />
        </mxCell>
        <mxCell id="YW9sjmkYDDz6GsdcyHox-22" value="+ CreateValueObject(valuel: Type): IValueObject&lt;Type&gt;" style="text;strokeColor=none;fillColor=none;align=left;verticalAlign=top;spacingLeft=4;spacingRight=4;overflow=hidden;rotatable=0;points=[[0,0.5],[1,0.5]];portConstraint=eastwest;fontFamily=Hack Nerd Font Mono;fontStyle=2" parent="YW9sjmkYDDz6GsdcyHox-20" vertex="1">
          <mxGeometry y="62" width="410" height="26" as="geometry" />
        </mxCell>
        <mxCell id="YW9sjmkYDDz6GsdcyHox-23" value="+ ValidateValueObject(valueObject: IValueObject&lt;Type&gt;)" style="text;strokeColor=none;fillColor=none;align=left;verticalAlign=top;spacingLeft=4;spacingRight=4;overflow=hidden;rotatable=0;points=[[0,0.5],[1,0.5]];portConstraint=eastwest;fontFamily=Hack Nerd Font Mono;" parent="YW9sjmkYDDz6GsdcyHox-20" vertex="1">
          <mxGeometry y="88" width="410" height="26" as="geometry" />
        </mxCell>
        <mxCell id="QXIKQU8GQRgo96XsBb6x-1" value="Type" style="shape=partialRectangle;html=1;top=1;align=center;dashed=1;" vertex="1" parent="9zRti0-3QmrPkJPcq3Wf-1">
          <mxGeometry x="367.5" width="53" height="20" as="geometry" />
        </mxCell>
        <mxCell id="9zRti0-3QmrPkJPcq3Wf-2" value="Type" style="shape=partialRectangle;html=1;top=1;align=center;dashed=1;" vertex="1" parent="1">
          <mxGeometry x="440" y="470" width="53" height="20" as="geometry" />
        </mxCell>
      </root>
    </mxGraphModel>
  </diagram>
  <diagram id="nW8rHjgsoFS7Bbxb7j_G" name="Abstract Factory">
    <mxGraphModel dx="1809" dy="816" grid="1" gridSize="10" guides="1" tooltips="1" connect="1" arrows="1" fold="1" page="0" pageScale="1" pageWidth="827" pageHeight="1169" math="0" shadow="0">
      <root>
        <mxCell id="0" />
        <mxCell id="1" parent="0" />
        <mxCell id="CJ_wfMEq_0ogE-5_4uQq-1" value="«interface»&#xa;IMessage" style="swimlane;fontStyle=1;align=center;verticalAlign=top;childLayout=stackLayout;horizontal=1;startSize=40;horizontalStack=0;resizeParent=1;resizeParentMax=0;resizeLast=0;collapsible=1;marginBottom=0;fillColor=#e1d5e7;strokeColor=#9673a6;rounded=1;" parent="1" vertex="1">
          <mxGeometry x="100" y="310" width="330" height="88" as="geometry" />
        </mxCell>
        <mxCell id="wDpvabRCse713EYoyPtW-9" value="" style="text;strokeColor=none;fillColor=none;align=left;verticalAlign=middle;spacingTop=-1;spacingLeft=4;spacingRight=4;rotatable=0;labelPosition=right;points=[];portConstraint=eastwest;" vertex="1" parent="CJ_wfMEq_0ogE-5_4uQq-1">
          <mxGeometry y="40" width="330" height="14" as="geometry" />
        </mxCell>
        <mxCell id="CJ_wfMEq_0ogE-5_4uQq-2" value="" style="line;strokeWidth=1;fillColor=none;align=left;verticalAlign=middle;spacingTop=-1;spacingLeft=3;spacingRight=3;rotatable=0;labelPosition=right;points=[];portConstraint=eastwest;strokeColor=inherit;" parent="CJ_wfMEq_0ogE-5_4uQq-1" vertex="1">
          <mxGeometry y="54" width="330" height="8" as="geometry" />
        </mxCell>
        <mxCell id="CJ_wfMEq_0ogE-5_4uQq-3" value="+ Send(destination: String, message: String)" style="text;strokeColor=none;fillColor=none;align=left;verticalAlign=top;spacingLeft=4;spacingRight=4;overflow=hidden;rotatable=0;points=[[0,0.5],[1,0.5]];portConstraint=eastwest;fontFamily=Hack Nerd Font Mono;" parent="CJ_wfMEq_0ogE-5_4uQq-1" vertex="1">
          <mxGeometry y="62" width="330" height="26" as="geometry" />
        </mxCell>
        <mxCell id="Z8zeJuamYCHdJcAV_67n-1" style="edgeStyle=orthogonalEdgeStyle;rounded=1;orthogonalLoop=1;jettySize=auto;html=1;dashed=1;strokeColor=#666666;align=center;verticalAlign=middle;fontFamily=Helvetica;fontSize=12;fontColor=default;labelBackgroundColor=default;startSize=12;endArrow=block;endFill=0;endSize=12;fillColor=#f5f5f5;" parent="1" source="FBgTTQ9x6nuZuHLSr-IU-1" target="CJ_wfMEq_0ogE-5_4uQq-1" edge="1">
          <mxGeometry relative="1" as="geometry" />
        </mxCell>
        <mxCell id="CW6xtT2hsnmFXFxZsMhL-11" style="rounded=1;orthogonalLoop=1;jettySize=auto;html=1;strokeColor=#666666;align=center;verticalAlign=middle;fontFamily=Helvetica;fontSize=12;fontColor=default;labelBackgroundColor=default;startSize=12;endArrow=open;endFill=0;endSize=12;fillColor=#f5f5f5;" parent="1" source="FBgTTQ9x6nuZuHLSr-IU-1" target="WnWaSo3Iu1cbr5oUlHBW-1" edge="1">
          <mxGeometry relative="1" as="geometry" />
        </mxCell>
        <mxCell id="FBgTTQ9x6nuZuHLSr-IU-1" value="«abstract»&#xa;MessageBase" style="swimlane;fontStyle=1;align=center;verticalAlign=top;childLayout=stackLayout;horizontal=1;startSize=40;horizontalStack=0;resizeParent=1;resizeParentMax=0;resizeLast=0;collapsible=1;marginBottom=0;fillColor=#e1d5e7;strokeColor=#9673a6;rounded=1;" parent="1" vertex="1">
          <mxGeometry x="60" y="480" width="410" height="152" as="geometry" />
        </mxCell>
        <mxCell id="FBgTTQ9x6nuZuHLSr-IU-3" value="- Transport: TransportBase" style="text;strokeColor=none;fillColor=none;align=left;verticalAlign=top;spacingLeft=4;spacingRight=4;overflow=hidden;rotatable=0;points=[[0,0.5],[1,0.5]];portConstraint=eastwest;fontFamily=Hack Nerd Font Mono;fontStyle=0" parent="FBgTTQ9x6nuZuHLSr-IU-1" vertex="1">
          <mxGeometry y="40" width="410" height="26" as="geometry" />
        </mxCell>
        <mxCell id="FBgTTQ9x6nuZuHLSr-IU-2" value="" style="line;strokeWidth=1;fillColor=none;align=left;verticalAlign=middle;spacingTop=-1;spacingLeft=3;spacingRight=3;rotatable=0;labelPosition=right;points=[];portConstraint=eastwest;strokeColor=inherit;" parent="FBgTTQ9x6nuZuHLSr-IU-1" vertex="1">
          <mxGeometry y="66" width="410" height="8" as="geometry" />
        </mxCell>
        <mxCell id="FBgTTQ9x6nuZuHLSr-IU-5" value="+ «create» MessageBase(transport: TransportBase)" style="text;strokeColor=none;fillColor=none;align=left;verticalAlign=top;spacingLeft=4;spacingRight=4;overflow=hidden;rotatable=0;points=[[0,0.5],[1,0.5]];portConstraint=eastwest;fontFamily=Hack Nerd Font Mono;" parent="FBgTTQ9x6nuZuHLSr-IU-1" vertex="1">
          <mxGeometry y="74" width="410" height="26" as="geometry" />
        </mxCell>
        <mxCell id="FBgTTQ9x6nuZuHLSr-IU-4" value="+ Send(destination: String, message: String)" style="text;strokeColor=none;fillColor=none;align=left;verticalAlign=top;spacingLeft=4;spacingRight=4;overflow=hidden;rotatable=0;points=[[0,0.5],[1,0.5]];portConstraint=eastwest;fontFamily=Hack Nerd Font Mono;fontStyle=2" parent="FBgTTQ9x6nuZuHLSr-IU-1" vertex="1">
          <mxGeometry y="100" width="410" height="26" as="geometry" />
        </mxCell>
        <mxCell id="HbkVYoHElN5At86Kwoae-1" value="# LogMessage(message: String)" style="text;strokeColor=none;fillColor=none;align=left;verticalAlign=top;spacingLeft=4;spacingRight=4;overflow=hidden;rotatable=0;points=[[0,0.5],[1,0.5]];portConstraint=eastwest;fontFamily=Hack Nerd Font Mono;" parent="FBgTTQ9x6nuZuHLSr-IU-1" vertex="1">
          <mxGeometry y="126" width="410" height="26" as="geometry" />
        </mxCell>
        <mxCell id="j16hahtZhfi3MrXjRKYi-1" style="rounded=1;orthogonalLoop=1;jettySize=auto;html=1;strokeColor=#666666;align=center;verticalAlign=middle;fontFamily=Helvetica;fontSize=12;fontColor=default;labelBackgroundColor=default;startSize=12;endArrow=block;endFill=0;endSize=12;fillColor=#f5f5f5;" parent="1" source="dWdwaNW0lv7iupZ5TvJS-1" target="FBgTTQ9x6nuZuHLSr-IU-1" edge="1">
          <mxGeometry relative="1" as="geometry" />
        </mxCell>
        <mxCell id="dWdwaNW0lv7iupZ5TvJS-1" value="MessageEmail" style="swimlane;fontStyle=1;align=center;verticalAlign=top;childLayout=stackLayout;horizontal=1;startSize=30;horizontalStack=0;resizeParent=1;resizeParentMax=0;resizeLast=0;collapsible=1;marginBottom=0;fillColor=#e1d5e7;strokeColor=#9673a6;rounded=1;" parent="1" vertex="1">
          <mxGeometry x="575" y="517" width="340" height="78" as="geometry" />
        </mxCell>
        <mxCell id="wDpvabRCse713EYoyPtW-7" value="" style="text;strokeColor=none;fillColor=none;align=left;verticalAlign=middle;spacingTop=-1;spacingLeft=4;spacingRight=4;rotatable=0;labelPosition=right;points=[];portConstraint=eastwest;" vertex="1" parent="dWdwaNW0lv7iupZ5TvJS-1">
          <mxGeometry y="30" width="340" height="14" as="geometry" />
        </mxCell>
        <mxCell id="dWdwaNW0lv7iupZ5TvJS-3" value="" style="line;strokeWidth=1;fillColor=none;align=left;verticalAlign=middle;spacingTop=-1;spacingLeft=3;spacingRight=3;rotatable=0;labelPosition=right;points=[];portConstraint=eastwest;strokeColor=inherit;" parent="dWdwaNW0lv7iupZ5TvJS-1" vertex="1">
          <mxGeometry y="44" width="340" height="8" as="geometry" />
        </mxCell>
        <mxCell id="ibeol0foVa0noJKG1iXX-2" value="+ /Send(destination: String, message: String)" style="text;strokeColor=none;fillColor=none;align=left;verticalAlign=top;spacingLeft=4;spacingRight=4;overflow=hidden;rotatable=0;points=[[0,0.5],[1,0.5]];portConstraint=eastwest;fontFamily=Hack Nerd Font Mono;" parent="dWdwaNW0lv7iupZ5TvJS-1" vertex="1">
          <mxGeometry y="52" width="340" height="26" as="geometry" />
        </mxCell>
        <mxCell id="j16hahtZhfi3MrXjRKYi-2" style="rounded=1;orthogonalLoop=1;jettySize=auto;html=1;strokeColor=#666666;align=center;verticalAlign=middle;fontFamily=Helvetica;fontSize=12;fontColor=default;labelBackgroundColor=default;startSize=12;endArrow=block;endFill=0;endSize=12;fillColor=#f5f5f5;" parent="1" source="dWdwaNW0lv7iupZ5TvJS-7" target="FBgTTQ9x6nuZuHLSr-IU-1" edge="1">
          <mxGeometry relative="1" as="geometry" />
        </mxCell>
        <mxCell id="dWdwaNW0lv7iupZ5TvJS-7" value="MessageWhatsApp" style="swimlane;fontStyle=1;align=center;verticalAlign=top;childLayout=stackLayout;horizontal=1;startSize=30;horizontalStack=0;resizeParent=1;resizeParentMax=0;resizeLast=0;collapsible=1;marginBottom=0;fillColor=#e1d5e7;strokeColor=#9673a6;rounded=1;" parent="1" vertex="1">
          <mxGeometry x="-380" y="517" width="340" height="78" as="geometry" />
        </mxCell>
        <mxCell id="wDpvabRCse713EYoyPtW-8" value="" style="text;strokeColor=none;fillColor=none;align=left;verticalAlign=middle;spacingTop=-1;spacingLeft=4;spacingRight=4;rotatable=0;labelPosition=right;points=[];portConstraint=eastwest;" vertex="1" parent="dWdwaNW0lv7iupZ5TvJS-7">
          <mxGeometry y="30" width="340" height="14" as="geometry" />
        </mxCell>
        <mxCell id="dWdwaNW0lv7iupZ5TvJS-8" value="" style="line;strokeWidth=1;fillColor=none;align=left;verticalAlign=middle;spacingTop=-1;spacingLeft=3;spacingRight=3;rotatable=0;labelPosition=right;points=[];portConstraint=eastwest;strokeColor=inherit;" parent="dWdwaNW0lv7iupZ5TvJS-7" vertex="1">
          <mxGeometry y="44" width="340" height="8" as="geometry" />
        </mxCell>
        <mxCell id="ibeol0foVa0noJKG1iXX-4" value="+ /Send(destination: String, message: String)" style="text;strokeColor=none;fillColor=none;align=left;verticalAlign=top;spacingLeft=4;spacingRight=4;overflow=hidden;rotatable=0;points=[[0,0.5],[1,0.5]];portConstraint=eastwest;fontFamily=Hack Nerd Font Mono;" parent="dWdwaNW0lv7iupZ5TvJS-7" vertex="1">
          <mxGeometry y="52" width="340" height="26" as="geometry" />
        </mxCell>
        <mxCell id="A--K-M63eJnFthLWxcBZ-1" value="«interface»&#xa;IMessageFactory" style="swimlane;fontStyle=1;align=center;verticalAlign=top;childLayout=stackLayout;horizontal=1;startSize=40;horizontalStack=0;resizeParent=1;resizeParentMax=0;resizeLast=0;collapsible=1;marginBottom=0;fillColor=#e1d5e7;strokeColor=#9673a6;rounded=1;" parent="1" vertex="1">
          <mxGeometry x="100" y="1086" width="330" height="88" as="geometry" />
        </mxCell>
        <mxCell id="wDpvabRCse713EYoyPtW-10" value="" style="text;strokeColor=none;fillColor=none;align=left;verticalAlign=middle;spacingTop=-1;spacingLeft=4;spacingRight=4;rotatable=0;labelPosition=right;points=[];portConstraint=eastwest;" vertex="1" parent="A--K-M63eJnFthLWxcBZ-1">
          <mxGeometry y="40" width="330" height="14" as="geometry" />
        </mxCell>
        <mxCell id="A--K-M63eJnFthLWxcBZ-3" value="" style="line;strokeWidth=1;fillColor=none;align=left;verticalAlign=middle;spacingTop=-1;spacingLeft=3;spacingRight=3;rotatable=0;labelPosition=right;points=[];portConstraint=eastwest;strokeColor=inherit;" parent="A--K-M63eJnFthLWxcBZ-1" vertex="1">
          <mxGeometry y="54" width="330" height="8" as="geometry" />
        </mxCell>
        <mxCell id="A--K-M63eJnFthLWxcBZ-4" value="+ CreateMessage(): IMessage" style="text;strokeColor=none;fillColor=none;align=left;verticalAlign=top;spacingLeft=4;spacingRight=4;overflow=hidden;rotatable=0;points=[[0,0.5],[1,0.5]];portConstraint=eastwest;fontFamily=Hack Nerd Font Mono;" parent="A--K-M63eJnFthLWxcBZ-1" vertex="1">
          <mxGeometry y="62" width="330" height="26" as="geometry" />
        </mxCell>
        <mxCell id="WnWaSo3Iu1cbr5oUlHBW-1" value="«abstract»&#xa;TransportBase" style="swimlane;fontStyle=1;align=center;verticalAlign=top;childLayout=stackLayout;horizontal=1;startSize=40;horizontalStack=0;resizeParent=1;resizeParentMax=0;resizeLast=0;collapsible=1;marginBottom=0;fillColor=#e1d5e7;strokeColor=#9673a6;rounded=1;" parent="1" vertex="1">
          <mxGeometry x="60" y="720" width="410" height="126" as="geometry" />
        </mxCell>
        <mxCell id="WnWaSo3Iu1cbr5oUlHBW-2" value="# Destination?: String" style="text;strokeColor=none;fillColor=none;align=left;verticalAlign=top;spacingLeft=4;spacingRight=4;overflow=hidden;rotatable=0;points=[[0,0.5],[1,0.5]];portConstraint=eastwest;fontFamily=Hack Nerd Font Mono;fontStyle=0" parent="WnWaSo3Iu1cbr5oUlHBW-1" vertex="1">
          <mxGeometry y="40" width="410" height="26" as="geometry" />
        </mxCell>
        <mxCell id="WnWaSo3Iu1cbr5oUlHBW-3" value="" style="line;strokeWidth=1;fillColor=none;align=left;verticalAlign=middle;spacingTop=-1;spacingLeft=3;spacingRight=3;rotatable=0;labelPosition=right;points=[];portConstraint=eastwest;strokeColor=inherit;" parent="WnWaSo3Iu1cbr5oUlHBW-1" vertex="1">
          <mxGeometry y="66" width="410" height="8" as="geometry" />
        </mxCell>
        <mxCell id="WnWaSo3Iu1cbr5oUlHBW-4" value="+ MessageFor(destination: String)" style="text;strokeColor=none;fillColor=none;align=left;verticalAlign=top;spacingLeft=4;spacingRight=4;overflow=hidden;rotatable=0;points=[[0,0.5],[1,0.5]];portConstraint=eastwest;fontFamily=Hack Nerd Font Mono;" parent="WnWaSo3Iu1cbr5oUlHBW-1" vertex="1">
          <mxGeometry y="74" width="410" height="26" as="geometry" />
        </mxCell>
        <mxCell id="WnWaSo3Iu1cbr5oUlHBW-5" value="+ SendMessage(message: String)" style="text;strokeColor=none;fillColor=none;align=left;verticalAlign=top;spacingLeft=4;spacingRight=4;overflow=hidden;rotatable=0;points=[[0,0.5],[1,0.5]];portConstraint=eastwest;fontFamily=Hack Nerd Font Mono;fontStyle=2" parent="WnWaSo3Iu1cbr5oUlHBW-1" vertex="1">
          <mxGeometry y="100" width="410" height="26" as="geometry" />
        </mxCell>
        <mxCell id="CW6xtT2hsnmFXFxZsMhL-9" style="rounded=1;orthogonalLoop=1;jettySize=auto;html=1;strokeColor=#666666;align=center;verticalAlign=middle;fontFamily=Helvetica;fontSize=12;fontColor=default;labelBackgroundColor=default;startSize=12;endArrow=block;endFill=0;endSize=12;fillColor=#f5f5f5;" parent="1" source="CW6xtT2hsnmFXFxZsMhL-1" target="WnWaSo3Iu1cbr5oUlHBW-1" edge="1">
          <mxGeometry relative="1" as="geometry" />
        </mxCell>
        <mxCell id="CW6xtT2hsnmFXFxZsMhL-1" value="EmailTransport" style="swimlane;fontStyle=1;align=center;verticalAlign=top;childLayout=stackLayout;horizontal=1;startSize=30;horizontalStack=0;resizeParent=1;resizeParentMax=0;resizeLast=0;collapsible=1;marginBottom=0;fillColor=#e1d5e7;strokeColor=#9673a6;rounded=1;arcSize=20;" parent="1" vertex="1">
          <mxGeometry x="335" y="930" width="240" height="78" as="geometry" />
        </mxCell>
        <mxCell id="wDpvabRCse713EYoyPtW-6" value="" style="text;strokeColor=none;fillColor=none;align=left;verticalAlign=middle;spacingTop=-1;spacingLeft=4;spacingRight=4;rotatable=0;labelPosition=right;points=[];portConstraint=eastwest;" vertex="1" parent="CW6xtT2hsnmFXFxZsMhL-1">
          <mxGeometry y="30" width="240" height="14" as="geometry" />
        </mxCell>
        <mxCell id="CW6xtT2hsnmFXFxZsMhL-3" value="" style="line;strokeWidth=1;fillColor=none;align=left;verticalAlign=middle;spacingTop=-1;spacingLeft=3;spacingRight=3;rotatable=0;labelPosition=right;points=[];portConstraint=eastwest;strokeColor=inherit;" parent="CW6xtT2hsnmFXFxZsMhL-1" vertex="1">
          <mxGeometry y="44" width="240" height="8" as="geometry" />
        </mxCell>
        <mxCell id="CW6xtT2hsnmFXFxZsMhL-4" value="+ /SendMessage(message: String)" style="text;strokeColor=none;fillColor=none;align=left;verticalAlign=top;spacingLeft=4;spacingRight=4;overflow=hidden;rotatable=0;points=[[0,0.5],[1,0.5]];portConstraint=eastwest;fontFamily=Hack Nerd Font Mono;" parent="CW6xtT2hsnmFXFxZsMhL-1" vertex="1">
          <mxGeometry y="52" width="240" height="26" as="geometry" />
        </mxCell>
        <mxCell id="CW6xtT2hsnmFXFxZsMhL-10" style="rounded=1;orthogonalLoop=1;jettySize=auto;html=1;strokeColor=#666666;align=center;verticalAlign=middle;fontFamily=Helvetica;fontSize=12;fontColor=default;labelBackgroundColor=default;startSize=12;endArrow=block;endFill=0;endSize=12;fillColor=#f5f5f5;" parent="1" source="CW6xtT2hsnmFXFxZsMhL-5" target="WnWaSo3Iu1cbr5oUlHBW-1" edge="1">
          <mxGeometry relative="1" as="geometry" />
        </mxCell>
        <mxCell id="CW6xtT2hsnmFXFxZsMhL-5" value="WhatsAppTransport" style="swimlane;fontStyle=1;align=center;verticalAlign=top;childLayout=stackLayout;horizontal=1;startSize=30;horizontalStack=0;resizeParent=1;resizeParentMax=0;resizeLast=0;collapsible=1;marginBottom=0;fillColor=#e1d5e7;strokeColor=#9673a6;rounded=1;" parent="1" vertex="1">
          <mxGeometry x="-40" y="930" width="240" height="78" as="geometry" />
        </mxCell>
        <mxCell id="wDpvabRCse713EYoyPtW-5" value="" style="text;strokeColor=none;fillColor=none;align=left;verticalAlign=middle;spacingTop=-1;spacingLeft=4;spacingRight=4;rotatable=0;labelPosition=right;points=[];portConstraint=eastwest;" vertex="1" parent="CW6xtT2hsnmFXFxZsMhL-5">
          <mxGeometry y="30" width="240" height="14" as="geometry" />
        </mxCell>
        <mxCell id="CW6xtT2hsnmFXFxZsMhL-7" value="" style="line;strokeWidth=1;fillColor=none;align=left;verticalAlign=middle;spacingTop=-1;spacingLeft=3;spacingRight=3;rotatable=0;labelPosition=right;points=[];portConstraint=eastwest;strokeColor=inherit;" parent="CW6xtT2hsnmFXFxZsMhL-5" vertex="1">
          <mxGeometry y="44" width="240" height="8" as="geometry" />
        </mxCell>
        <mxCell id="CW6xtT2hsnmFXFxZsMhL-8" value="+ /SendMessage(message: String)" style="text;strokeColor=none;fillColor=none;align=left;verticalAlign=top;spacingLeft=4;spacingRight=4;overflow=hidden;rotatable=0;points=[[0,0.5],[1,0.5]];portConstraint=eastwest;fontFamily=Hack Nerd Font Mono;" parent="CW6xtT2hsnmFXFxZsMhL-5" vertex="1">
          <mxGeometry y="52" width="240" height="26" as="geometry" />
        </mxCell>
        <mxCell id="CW6xtT2hsnmFXFxZsMhL-18" style="rounded=1;orthogonalLoop=1;jettySize=auto;html=1;strokeColor=#666666;align=center;verticalAlign=middle;fontFamily=Helvetica;fontSize=12;fontColor=default;labelBackgroundColor=default;startSize=12;endArrow=block;endFill=0;endSize=12;fillColor=#f5f5f5;dashed=1;" parent="1" source="CW6xtT2hsnmFXFxZsMhL-12" target="A--K-M63eJnFthLWxcBZ-1" edge="1">
          <mxGeometry relative="1" as="geometry" />
        </mxCell>
        <mxCell id="xc8KfKcstNZvwpyR1Q-v-1" style="rounded=1;orthogonalLoop=1;jettySize=auto;html=1;strokeColor=#666666;align=center;verticalAlign=middle;fontFamily=Helvetica;fontSize=12;fontColor=default;labelBackgroundColor=default;startArrow=diamond;startFill=0;startSize=12;endArrow=none;endFill=0;endSize=12;fillColor=#f5f5f5;" parent="1" source="CW6xtT2hsnmFXFxZsMhL-12" target="CW6xtT2hsnmFXFxZsMhL-1" edge="1">
          <mxGeometry relative="1" as="geometry" />
        </mxCell>
        <mxCell id="CW6xtT2hsnmFXFxZsMhL-12" value="EmailFactory" style="swimlane;fontStyle=1;align=center;verticalAlign=top;childLayout=stackLayout;horizontal=1;startSize=30;horizontalStack=0;resizeParent=1;resizeParentMax=0;resizeLast=0;collapsible=1;marginBottom=0;fillColor=#e1d5e7;strokeColor=#9673a6;rounded=1;" parent="1" vertex="1">
          <mxGeometry x="510" y="1097" width="170" height="66" as="geometry" />
        </mxCell>
        <mxCell id="wDpvabRCse713EYoyPtW-3" value="" style="text;strokeColor=none;fillColor=none;align=left;verticalAlign=middle;spacingTop=-1;spacingLeft=4;spacingRight=4;rotatable=0;labelPosition=right;points=[];portConstraint=eastwest;" vertex="1" parent="CW6xtT2hsnmFXFxZsMhL-12">
          <mxGeometry y="30" width="170" height="14" as="geometry" />
        </mxCell>
        <mxCell id="CW6xtT2hsnmFXFxZsMhL-14" value="" style="line;strokeWidth=1;fillColor=none;align=left;verticalAlign=middle;spacingTop=-1;spacingLeft=3;spacingRight=3;rotatable=0;labelPosition=right;points=[];portConstraint=eastwest;strokeColor=inherit;" parent="CW6xtT2hsnmFXFxZsMhL-12" vertex="1">
          <mxGeometry y="44" width="170" height="8" as="geometry" />
        </mxCell>
        <mxCell id="wDpvabRCse713EYoyPtW-4" value="" style="text;strokeColor=none;fillColor=none;align=left;verticalAlign=middle;spacingTop=-1;spacingLeft=4;spacingRight=4;rotatable=0;labelPosition=right;points=[];portConstraint=eastwest;" vertex="1" parent="CW6xtT2hsnmFXFxZsMhL-12">
          <mxGeometry y="52" width="170" height="14" as="geometry" />
        </mxCell>
        <mxCell id="CW6xtT2hsnmFXFxZsMhL-23" style="rounded=1;orthogonalLoop=1;jettySize=auto;html=1;strokeColor=#666666;align=center;verticalAlign=middle;fontFamily=Helvetica;fontSize=12;fontColor=default;labelBackgroundColor=default;startSize=12;endArrow=block;endFill=0;endSize=12;fillColor=#f5f5f5;dashed=1;" parent="1" source="CW6xtT2hsnmFXFxZsMhL-19" target="A--K-M63eJnFthLWxcBZ-1" edge="1">
          <mxGeometry relative="1" as="geometry" />
        </mxCell>
        <mxCell id="xc8KfKcstNZvwpyR1Q-v-2" style="rounded=1;orthogonalLoop=1;jettySize=auto;html=1;strokeColor=#666666;align=center;verticalAlign=middle;fontFamily=Helvetica;fontSize=12;fontColor=default;labelBackgroundColor=default;startArrow=diamond;startFill=0;startSize=12;endArrow=none;endFill=0;endSize=12;fillColor=#f5f5f5;" parent="1" source="CW6xtT2hsnmFXFxZsMhL-19" target="CW6xtT2hsnmFXFxZsMhL-5" edge="1">
          <mxGeometry relative="1" as="geometry" />
        </mxCell>
        <mxCell id="xc8KfKcstNZvwpyR1Q-v-3" style="rounded=1;orthogonalLoop=1;jettySize=auto;html=1;strokeColor=#666666;align=center;verticalAlign=middle;fontFamily=Helvetica;fontSize=12;fontColor=default;labelBackgroundColor=default;startArrow=diamond;startFill=0;startSize=12;endArrow=none;endFill=0;endSize=12;fillColor=#f5f5f5;curved=0;jumpStyle=none;" parent="1" source="CW6xtT2hsnmFXFxZsMhL-19" target="dWdwaNW0lv7iupZ5TvJS-7" edge="1">
          <mxGeometry relative="1" as="geometry" />
        </mxCell>
        <mxCell id="CW6xtT2hsnmFXFxZsMhL-19" value="WhatsAppFactory" style="swimlane;fontStyle=1;align=center;verticalAlign=top;childLayout=stackLayout;horizontal=1;startSize=30;horizontalStack=0;resizeParent=1;resizeParentMax=0;resizeLast=0;collapsible=1;marginBottom=0;fillColor=#e1d5e7;strokeColor=#9673a6;rounded=1;" parent="1" vertex="1">
          <mxGeometry x="-160" y="1097" width="170" height="66" as="geometry" />
        </mxCell>
        <mxCell id="wDpvabRCse713EYoyPtW-1" value="" style="text;strokeColor=none;fillColor=none;align=left;verticalAlign=middle;spacingTop=-1;spacingLeft=4;spacingRight=4;rotatable=0;labelPosition=right;points=[];portConstraint=eastwest;" vertex="1" parent="CW6xtT2hsnmFXFxZsMhL-19">
          <mxGeometry y="30" width="170" height="14" as="geometry" />
        </mxCell>
        <mxCell id="CW6xtT2hsnmFXFxZsMhL-21" value="" style="line;strokeWidth=1;fillColor=none;align=left;verticalAlign=middle;spacingTop=-1;spacingLeft=3;spacingRight=3;rotatable=0;labelPosition=right;points=[];portConstraint=eastwest;strokeColor=inherit;" parent="CW6xtT2hsnmFXFxZsMhL-19" vertex="1">
          <mxGeometry y="44" width="170" height="8" as="geometry" />
        </mxCell>
        <mxCell id="wDpvabRCse713EYoyPtW-2" value="" style="text;strokeColor=none;fillColor=none;align=left;verticalAlign=middle;spacingTop=-1;spacingLeft=4;spacingRight=4;rotatable=0;labelPosition=right;points=[];portConstraint=eastwest;" vertex="1" parent="CW6xtT2hsnmFXFxZsMhL-19">
          <mxGeometry y="52" width="170" height="14" as="geometry" />
        </mxCell>
        <mxCell id="lgv7D5sWIWXDvoBG6RBa-1" style="rounded=1;orthogonalLoop=1;jettySize=auto;html=1;strokeColor=#666666;align=center;verticalAlign=middle;fontFamily=Helvetica;fontSize=12;fontColor=default;labelBackgroundColor=default;startSize=12;endArrow=none;endFill=0;endSize=12;fillColor=#f5f5f5;startArrow=diamond;startFill=0;" parent="1" source="CW6xtT2hsnmFXFxZsMhL-12" target="dWdwaNW0lv7iupZ5TvJS-1" edge="1">
          <mxGeometry relative="1" as="geometry" />
        </mxCell>
        <mxCell id="rItnc7QS3ONDT4MALpzZ-5" style="rounded=1;orthogonalLoop=1;jettySize=auto;html=1;strokeColor=#666666;align=center;verticalAlign=middle;fontFamily=Helvetica;fontSize=12;fontColor=default;labelBackgroundColor=default;startArrow=none;startFill=0;startSize=12;endArrow=none;endFill=0;endSize=12;fillColor=#f5f5f5;" parent="1" source="et5C9o04t4Pz3lvuw6p0-1" target="rItnc7QS3ONDT4MALpzZ-2" edge="1">
          <mxGeometry relative="1" as="geometry" />
        </mxCell>
        <mxCell id="zJWtZBFn_luCl7vVY898-2" style="edgeStyle=orthogonalEdgeStyle;rounded=1;orthogonalLoop=1;jettySize=auto;html=1;strokeColor=#666666;align=center;verticalAlign=middle;fontFamily=Helvetica;fontSize=12;fontColor=default;labelBackgroundColor=default;startArrow=none;startFill=0;startSize=12;endArrow=none;endFill=0;endSize=12;fillColor=#f5f5f5;" parent="1" source="et5C9o04t4Pz3lvuw6p0-1" target="A--K-M63eJnFthLWxcBZ-1" edge="1">
          <mxGeometry relative="1" as="geometry" />
        </mxCell>
        <mxCell id="zJWtZBFn_luCl7vVY898-3" style="rounded=1;orthogonalLoop=1;jettySize=auto;html=1;strokeColor=#666666;align=center;verticalAlign=middle;fontFamily=Helvetica;fontSize=12;fontColor=default;labelBackgroundColor=default;startArrow=none;startFill=0;startSize=12;endArrow=open;endFill=0;endSize=12;fillColor=#f5f5f5;" parent="1" source="et5C9o04t4Pz3lvuw6p0-1" target="CW6xtT2hsnmFXFxZsMhL-12" edge="1">
          <mxGeometry relative="1" as="geometry" />
        </mxCell>
        <mxCell id="zJWtZBFn_luCl7vVY898-4" style="rounded=1;orthogonalLoop=1;jettySize=auto;html=1;strokeColor=#666666;align=center;verticalAlign=middle;fontFamily=Helvetica;fontSize=12;fontColor=default;labelBackgroundColor=default;startArrow=none;startFill=0;startSize=12;endArrow=open;endFill=0;endSize=12;fillColor=#f5f5f5;" parent="1" source="et5C9o04t4Pz3lvuw6p0-1" target="CW6xtT2hsnmFXFxZsMhL-19" edge="1">
          <mxGeometry relative="1" as="geometry" />
        </mxCell>
        <mxCell id="et5C9o04t4Pz3lvuw6p0-1" value="Program" style="swimlane;fontStyle=1;align=center;verticalAlign=top;childLayout=stackLayout;horizontal=1;startSize=30;horizontalStack=0;resizeParent=1;resizeParentMax=0;resizeLast=0;collapsible=1;marginBottom=0;fillColor=#e1d5e7;strokeColor=#9673a6;rounded=1;" parent="1" vertex="1">
          <mxGeometry x="75" y="1330" width="380" height="116" as="geometry" />
        </mxCell>
        <mxCell id="et5C9o04t4Pz3lvuw6p0-2" value="- Factory?: IMessageFactory" style="text;strokeColor=none;fillColor=none;align=left;verticalAlign=top;spacingLeft=4;spacingRight=4;overflow=hidden;rotatable=0;points=[[0,0.5],[1,0.5]];portConstraint=eastwest;fontFamily=Hack Nerd Font Mono;fontStyle=4" parent="et5C9o04t4Pz3lvuw6p0-1" vertex="1">
          <mxGeometry y="30" width="380" height="26" as="geometry" />
        </mxCell>
        <mxCell id="et5C9o04t4Pz3lvuw6p0-3" value="" style="line;strokeWidth=1;fillColor=none;align=left;verticalAlign=middle;spacingTop=-1;spacingLeft=3;spacingRight=3;rotatable=0;labelPosition=right;points=[];portConstraint=eastwest;strokeColor=inherit;" parent="et5C9o04t4Pz3lvuw6p0-1" vertex="1">
          <mxGeometry y="56" width="380" height="8" as="geometry" />
        </mxCell>
        <mxCell id="et5C9o04t4Pz3lvuw6p0-4" value="+ Main()" style="text;strokeColor=none;fillColor=none;align=left;verticalAlign=top;spacingLeft=4;spacingRight=4;overflow=hidden;rotatable=0;points=[[0,0.5],[1,0.5]];portConstraint=eastwest;fontFamily=Hack Nerd Font Mono;fontStyle=4" parent="et5C9o04t4Pz3lvuw6p0-1" vertex="1">
          <mxGeometry y="64" width="380" height="26" as="geometry" />
        </mxCell>
        <mxCell id="rItnc7QS3ONDT4MALpzZ-1" value="- GetFactory(type: TransportType): IMessageFactory" style="text;strokeColor=none;fillColor=none;align=left;verticalAlign=top;spacingLeft=4;spacingRight=4;overflow=hidden;rotatable=0;points=[[0,0.5],[1,0.5]];portConstraint=eastwest;fontFamily=Hack Nerd Font Mono;fontStyle=4" parent="et5C9o04t4Pz3lvuw6p0-1" vertex="1">
          <mxGeometry y="90" width="380" height="26" as="geometry" />
        </mxCell>
        <mxCell id="rItnc7QS3ONDT4MALpzZ-2" value="«enumeration»&lt;br&gt;TransportType" style="swimlane;fontStyle=1;align=center;verticalAlign=top;childLayout=stackLayout;horizontal=1;startSize=40;horizontalStack=0;resizeParent=1;resizeParentMax=0;resizeLast=0;collapsible=0;marginBottom=0;html=1;whiteSpace=wrap;rounded=1;strokeColor=#9673a6;fontFamily=Helvetica;fontSize=12;fontColor=default;fillColor=#e1d5e7;" parent="1" vertex="1">
          <mxGeometry x="195" y="1520" width="140" height="100" as="geometry" />
        </mxCell>
        <mxCell id="rItnc7QS3ONDT4MALpzZ-3" value="Email" style="text;html=1;strokeColor=none;fillColor=none;align=left;verticalAlign=middle;spacingLeft=4;spacingRight=4;overflow=hidden;rotatable=0;points=[[0,0.5],[1,0.5]];portConstraint=eastwest;whiteSpace=wrap;fontFamily=Hack Nerd Font Mono;fontSize=12;fontColor=default;fontStyle=1;" parent="rItnc7QS3ONDT4MALpzZ-2" vertex="1">
          <mxGeometry y="40" width="140" height="30" as="geometry" />
        </mxCell>
        <mxCell id="rItnc7QS3ONDT4MALpzZ-4" value="WhatsApp" style="text;html=1;strokeColor=none;fillColor=none;align=left;verticalAlign=middle;spacingLeft=4;spacingRight=4;overflow=hidden;rotatable=0;points=[[0,0.5],[1,0.5]];portConstraint=eastwest;whiteSpace=wrap;fontFamily=Hack Nerd Font Mono;fontSize=12;fontColor=default;fontStyle=1;" parent="rItnc7QS3ONDT4MALpzZ-2" vertex="1">
          <mxGeometry y="70" width="140" height="30" as="geometry" />
        </mxCell>
      </root>
    </mxGraphModel>
  </diagram>
  <diagram id="ajlNcBkvlB5hg6KNTM27" name="Builder">
    <mxGraphModel dx="1809" dy="-384" grid="1" gridSize="10" guides="1" tooltips="1" connect="1" arrows="1" fold="1" page="0" pageScale="1" pageWidth="827" pageHeight="1169" math="0" shadow="0">
      <root>
        <mxCell id="0" />
        <mxCell id="1" parent="0" />
        <mxCell id="jqUomYugBXst_SP1mXZR-1" value="«enumeration»&lt;br&gt;Addition" style="swimlane;fontStyle=1;align=center;verticalAlign=top;childLayout=stackLayout;horizontal=1;startSize=40;horizontalStack=0;resizeParent=1;resizeParentMax=0;resizeLast=0;collapsible=0;marginBottom=0;html=1;whiteSpace=wrap;rounded=1;strokeColor=#9673a6;fontFamily=Helvetica;fontSize=12;fontColor=default;fillColor=#e1d5e7;" parent="1" vertex="1">
          <mxGeometry x="-20" y="1766" width="140" height="190" as="geometry" />
        </mxCell>
        <mxCell id="jqUomYugBXst_SP1mXZR-2" value="CHEESE" style="text;html=1;strokeColor=none;fillColor=none;align=left;verticalAlign=middle;spacingLeft=4;spacingRight=4;overflow=hidden;rotatable=0;points=[[0,0.5],[1,0.5]];portConstraint=eastwest;whiteSpace=wrap;fontFamily=Hack Nerd Font Mono;fontSize=12;fontColor=default;fontStyle=1;" parent="jqUomYugBXst_SP1mXZR-1" vertex="1">
          <mxGeometry y="40" width="140" height="30" as="geometry" />
        </mxCell>
        <mxCell id="jqUomYugBXst_SP1mXZR-3" value="TOMATO" style="text;html=1;strokeColor=none;fillColor=none;align=left;verticalAlign=middle;spacingLeft=4;spacingRight=4;overflow=hidden;rotatable=0;points=[[0,0.5],[1,0.5]];portConstraint=eastwest;whiteSpace=wrap;fontFamily=Hack Nerd Font Mono;fontSize=12;fontColor=default;fontStyle=1;" parent="jqUomYugBXst_SP1mXZR-1" vertex="1">
          <mxGeometry y="70" width="140" height="30" as="geometry" />
        </mxCell>
        <mxCell id="LDexY0KFkXr89QH4B6B5-1" value="LETTUCE" style="text;html=1;strokeColor=none;fillColor=none;align=left;verticalAlign=middle;spacingLeft=4;spacingRight=4;overflow=hidden;rotatable=0;points=[[0,0.5],[1,0.5]];portConstraint=eastwest;whiteSpace=wrap;fontFamily=Hack Nerd Font Mono;fontSize=12;fontColor=default;fontStyle=1;" parent="jqUomYugBXst_SP1mXZR-1" vertex="1">
          <mxGeometry y="100" width="140" height="30" as="geometry" />
        </mxCell>
        <mxCell id="LDexY0KFkXr89QH4B6B5-2" value="ONION" style="text;html=1;strokeColor=none;fillColor=none;align=left;verticalAlign=middle;spacingLeft=4;spacingRight=4;overflow=hidden;rotatable=0;points=[[0,0.5],[1,0.5]];portConstraint=eastwest;whiteSpace=wrap;fontFamily=Hack Nerd Font Mono;fontSize=12;fontColor=default;fontStyle=1;" parent="jqUomYugBXst_SP1mXZR-1" vertex="1">
          <mxGeometry y="130" width="140" height="30" as="geometry" />
        </mxCell>
        <mxCell id="LDexY0KFkXr89QH4B6B5-3" value="PICKLE" style="text;html=1;strokeColor=none;fillColor=none;align=left;verticalAlign=middle;spacingLeft=4;spacingRight=4;overflow=hidden;rotatable=0;points=[[0,0.5],[1,0.5]];portConstraint=eastwest;whiteSpace=wrap;fontFamily=Hack Nerd Font Mono;fontSize=12;fontColor=default;fontStyle=1;" parent="jqUomYugBXst_SP1mXZR-1" vertex="1">
          <mxGeometry y="160" width="140" height="30" as="geometry" />
        </mxCell>
        <mxCell id="LDexY0KFkXr89QH4B6B5-4" value="«enumeration»&lt;br&gt;DishType" style="swimlane;fontStyle=1;align=center;verticalAlign=top;childLayout=stackLayout;horizontal=1;startSize=40;horizontalStack=0;resizeParent=1;resizeParentMax=0;resizeLast=0;collapsible=0;marginBottom=0;html=1;whiteSpace=wrap;rounded=1;strokeColor=#9673a6;fontFamily=Helvetica;fontSize=12;fontColor=default;fillColor=#e1d5e7;" parent="1" vertex="1">
          <mxGeometry x="380" y="1530" width="140" height="160" as="geometry" />
        </mxCell>
        <mxCell id="LDexY0KFkXr89QH4B6B5-5" value="PIZZA" style="text;html=1;strokeColor=none;fillColor=none;align=left;verticalAlign=middle;spacingLeft=4;spacingRight=4;overflow=hidden;rotatable=0;points=[[0,0.5],[1,0.5]];portConstraint=eastwest;whiteSpace=wrap;fontFamily=Hack Nerd Font Mono;fontSize=12;fontColor=default;fontStyle=1;" parent="LDexY0KFkXr89QH4B6B5-4" vertex="1">
          <mxGeometry y="40" width="140" height="30" as="geometry" />
        </mxCell>
        <mxCell id="LDexY0KFkXr89QH4B6B5-6" value="PASTA" style="text;html=1;strokeColor=none;fillColor=none;align=left;verticalAlign=middle;spacingLeft=4;spacingRight=4;overflow=hidden;rotatable=0;points=[[0,0.5],[1,0.5]];portConstraint=eastwest;whiteSpace=wrap;fontFamily=Hack Nerd Font Mono;fontSize=12;fontColor=default;fontStyle=1;" parent="LDexY0KFkXr89QH4B6B5-4" vertex="1">
          <mxGeometry y="70" width="140" height="30" as="geometry" />
        </mxCell>
        <mxCell id="LDexY0KFkXr89QH4B6B5-7" value="SALAD" style="text;html=1;strokeColor=none;fillColor=none;align=left;verticalAlign=middle;spacingLeft=4;spacingRight=4;overflow=hidden;rotatable=0;points=[[0,0.5],[1,0.5]];portConstraint=eastwest;whiteSpace=wrap;fontFamily=Hack Nerd Font Mono;fontSize=12;fontColor=default;fontStyle=1;" parent="LDexY0KFkXr89QH4B6B5-4" vertex="1">
          <mxGeometry y="100" width="140" height="30" as="geometry" />
        </mxCell>
        <mxCell id="LDexY0KFkXr89QH4B6B5-8" value="TACO" style="text;html=1;strokeColor=none;fillColor=none;align=left;verticalAlign=middle;spacingLeft=4;spacingRight=4;overflow=hidden;rotatable=0;points=[[0,0.5],[1,0.5]];portConstraint=eastwest;whiteSpace=wrap;fontFamily=Hack Nerd Font Mono;fontSize=12;fontColor=default;fontStyle=1;" parent="LDexY0KFkXr89QH4B6B5-4" vertex="1">
          <mxGeometry y="130" width="140" height="30" as="geometry" />
        </mxCell>
        <mxCell id="LDexY0KFkXr89QH4B6B5-10" value="«enumeration»&lt;br&gt;Size" style="swimlane;fontStyle=1;align=center;verticalAlign=top;childLayout=stackLayout;horizontal=1;startSize=40;horizontalStack=0;resizeParent=1;resizeParentMax=0;resizeLast=0;collapsible=0;marginBottom=0;html=1;whiteSpace=wrap;rounded=1;strokeColor=#9673a6;fontFamily=Helvetica;fontSize=12;fontColor=default;fillColor=#e1d5e7;" parent="1" vertex="1">
          <mxGeometry x="780" y="1796" width="140" height="130" as="geometry" />
        </mxCell>
        <mxCell id="LDexY0KFkXr89QH4B6B5-11" value="SMALL" style="text;html=1;strokeColor=none;fillColor=none;align=left;verticalAlign=middle;spacingLeft=4;spacingRight=4;overflow=hidden;rotatable=0;points=[[0,0.5],[1,0.5]];portConstraint=eastwest;whiteSpace=wrap;fontFamily=Hack Nerd Font Mono;fontSize=12;fontColor=default;fontStyle=1;" parent="LDexY0KFkXr89QH4B6B5-10" vertex="1">
          <mxGeometry y="40" width="140" height="30" as="geometry" />
        </mxCell>
        <mxCell id="LDexY0KFkXr89QH4B6B5-12" value="MEDIUM" style="text;html=1;strokeColor=none;fillColor=none;align=left;verticalAlign=middle;spacingLeft=4;spacingRight=4;overflow=hidden;rotatable=0;points=[[0,0.5],[1,0.5]];portConstraint=eastwest;whiteSpace=wrap;fontFamily=Hack Nerd Font Mono;fontSize=12;fontColor=default;fontStyle=1;" parent="LDexY0KFkXr89QH4B6B5-10" vertex="1">
          <mxGeometry y="70" width="140" height="30" as="geometry" />
        </mxCell>
        <mxCell id="LDexY0KFkXr89QH4B6B5-13" value="LARGE" style="text;html=1;strokeColor=none;fillColor=none;align=left;verticalAlign=middle;spacingLeft=4;spacingRight=4;overflow=hidden;rotatable=0;points=[[0,0.5],[1,0.5]];portConstraint=eastwest;whiteSpace=wrap;fontFamily=Hack Nerd Font Mono;fontSize=12;fontColor=default;fontStyle=1;" parent="LDexY0KFkXr89QH4B6B5-10" vertex="1">
          <mxGeometry y="100" width="140" height="30" as="geometry" />
        </mxCell>
        <mxCell id="n3atLP77sHd1MAUI7_Xm-1" value="«interface»&#xa;IOrderBuilder" style="swimlane;fontStyle=1;align=center;verticalAlign=top;childLayout=stackLayout;horizontal=1;startSize=40;horizontalStack=0;resizeParent=1;resizeParentMax=0;resizeLast=0;collapsible=1;marginBottom=0;fillColor=#e1d5e7;strokeColor=#9673a6;rounded=1;" parent="1" vertex="1">
          <mxGeometry x="-140" y="2025" width="420" height="140" as="geometry" />
        </mxCell>
        <mxCell id="8oY1x3MjNwEjVfs7JucU-1" value="" style="text;strokeColor=none;fillColor=none;align=left;verticalAlign=middle;spacingTop=-1;spacingLeft=4;spacingRight=4;rotatable=0;labelPosition=right;points=[];portConstraint=eastwest;" vertex="1" parent="n3atLP77sHd1MAUI7_Xm-1">
          <mxGeometry y="40" width="420" height="14" as="geometry" />
        </mxCell>
        <mxCell id="n3atLP77sHd1MAUI7_Xm-3" value="" style="line;strokeWidth=1;fillColor=none;align=left;verticalAlign=middle;spacingTop=-1;spacingLeft=3;spacingRight=3;rotatable=0;labelPosition=right;points=[];portConstraint=eastwest;strokeColor=inherit;" parent="n3atLP77sHd1MAUI7_Xm-1" vertex="1">
          <mxGeometry y="54" width="420" height="8" as="geometry" />
        </mxCell>
        <mxCell id="n3atLP77sHd1MAUI7_Xm-4" value="+ SetDishType(dishType: DishType): IOrderBuilder" style="text;strokeColor=none;fillColor=none;align=left;verticalAlign=top;spacingLeft=4;spacingRight=4;overflow=hidden;rotatable=0;points=[[0,0.5],[1,0.5]];portConstraint=eastwest;fontFamily=Hack Nerd Font Mono;" parent="n3atLP77sHd1MAUI7_Xm-1" vertex="1">
          <mxGeometry y="62" width="420" height="26" as="geometry" />
        </mxCell>
        <mxCell id="n3atLP77sHd1MAUI7_Xm-5" value="+ SetAdditions(additions: List&lt;Addition&gt;): IOrderBuilder" style="text;strokeColor=none;fillColor=none;align=left;verticalAlign=top;spacingLeft=4;spacingRight=4;overflow=hidden;rotatable=0;points=[[0,0.5],[1,0.5]];portConstraint=eastwest;fontFamily=Hack Nerd Font Mono;" parent="n3atLP77sHd1MAUI7_Xm-1" vertex="1">
          <mxGeometry y="88" width="420" height="26" as="geometry" />
        </mxCell>
        <mxCell id="n3atLP77sHd1MAUI7_Xm-6" value="+ SetSize(size: Size): IOrderBuilder" style="text;strokeColor=none;fillColor=none;align=left;verticalAlign=top;spacingLeft=4;spacingRight=4;overflow=hidden;rotatable=0;points=[[0,0.5],[1,0.5]];portConstraint=eastwest;fontFamily=Hack Nerd Font Mono;" parent="n3atLP77sHd1MAUI7_Xm-1" vertex="1">
          <mxGeometry y="114" width="420" height="26" as="geometry" />
        </mxCell>
        <mxCell id="qsPXJ6OAHsH8pon7cxtR-1" style="rounded=1;orthogonalLoop=1;jettySize=auto;html=1;dashed=1;strokeColor=#666666;align=center;verticalAlign=middle;fontFamily=Helvetica;fontSize=12;fontColor=default;labelBackgroundColor=default;startSize=12;endArrow=block;endFill=0;endSize=12;fillColor=#f5f5f5;" parent="1" source="TW_rl-cKZGG9wxfYgXkC-1" target="n3atLP77sHd1MAUI7_Xm-1" edge="1">
          <mxGeometry relative="1" as="geometry" />
        </mxCell>
        <mxCell id="4DnISz4H8bsxrKkeKpQ8-8" style="rounded=0;orthogonalLoop=1;jettySize=auto;html=1;endSize=12;startSize=12;endArrow=none;endFill=0;startArrow=diamond;startFill=0;fillColor=#f5f5f5;strokeColor=#666666;" parent="1" source="TW_rl-cKZGG9wxfYgXkC-1" target="4DnISz4H8bsxrKkeKpQ8-1" edge="1">
          <mxGeometry relative="1" as="geometry" />
        </mxCell>
        <mxCell id="TW_rl-cKZGG9wxfYgXkC-1" value="OrderBuilder" style="swimlane;fontStyle=1;align=center;verticalAlign=top;childLayout=stackLayout;horizontal=1;startSize=30;horizontalStack=0;resizeParent=1;resizeParentMax=0;resizeLast=0;collapsible=1;marginBottom=0;fillColor=#e1d5e7;strokeColor=#9673a6;rounded=1;" parent="1" vertex="1">
          <mxGeometry x="345" y="2030" width="210" height="130" as="geometry" />
        </mxCell>
        <mxCell id="TW_rl-cKZGG9wxfYgXkC-7" value="- DishType: DishType" style="text;strokeColor=none;fillColor=none;align=left;verticalAlign=top;spacingLeft=4;spacingRight=4;overflow=hidden;rotatable=0;points=[[0,0.5],[1,0.5]];portConstraint=eastwest;fontFamily=Hack Nerd Font Mono;" parent="TW_rl-cKZGG9wxfYgXkC-1" vertex="1">
          <mxGeometry y="30" width="210" height="26" as="geometry" />
        </mxCell>
        <mxCell id="TW_rl-cKZGG9wxfYgXkC-2" value="- Addition?: List&lt;Addition&gt;" style="text;strokeColor=none;fillColor=none;align=left;verticalAlign=top;spacingLeft=4;spacingRight=4;overflow=hidden;rotatable=0;points=[[0,0.5],[1,0.5]];portConstraint=eastwest;fontFamily=Hack Nerd Font Mono;" parent="TW_rl-cKZGG9wxfYgXkC-1" vertex="1">
          <mxGeometry y="56" width="210" height="26" as="geometry" />
        </mxCell>
        <mxCell id="TW_rl-cKZGG9wxfYgXkC-8" value="- Size: Size" style="text;strokeColor=none;fillColor=none;align=left;verticalAlign=top;spacingLeft=4;spacingRight=4;overflow=hidden;rotatable=0;points=[[0,0.5],[1,0.5]];portConstraint=eastwest;fontFamily=Hack Nerd Font Mono;" parent="TW_rl-cKZGG9wxfYgXkC-1" vertex="1">
          <mxGeometry y="82" width="210" height="26" as="geometry" />
        </mxCell>
        <mxCell id="TW_rl-cKZGG9wxfYgXkC-3" value="" style="line;strokeWidth=1;fillColor=none;align=left;verticalAlign=middle;spacingTop=-1;spacingLeft=3;spacingRight=3;rotatable=0;labelPosition=right;points=[];portConstraint=eastwest;strokeColor=inherit;" parent="TW_rl-cKZGG9wxfYgXkC-1" vertex="1">
          <mxGeometry y="108" width="210" height="8" as="geometry" />
        </mxCell>
        <mxCell id="ubTWLWvV7-XKBuOC8oWH-2" value="" style="text;strokeColor=none;fillColor=none;align=left;verticalAlign=middle;spacingTop=-1;spacingLeft=4;spacingRight=4;rotatable=0;labelPosition=right;points=[];portConstraint=eastwest;" vertex="1" parent="TW_rl-cKZGG9wxfYgXkC-1">
          <mxGeometry y="116" width="210" height="14" as="geometry" />
        </mxCell>
        <mxCell id="4DnISz4H8bsxrKkeKpQ8-9" style="rounded=0;orthogonalLoop=1;jettySize=auto;html=1;endSize=12;startSize=12;endArrow=none;endFill=0;startArrow=none;startFill=0;fillColor=#f5f5f5;strokeColor=#666666;" parent="1" source="4DnISz4H8bsxrKkeKpQ8-1" target="jqUomYugBXst_SP1mXZR-1" edge="1">
          <mxGeometry relative="1" as="geometry" />
        </mxCell>
        <mxCell id="4DnISz4H8bsxrKkeKpQ8-10" style="rounded=0;orthogonalLoop=1;jettySize=auto;html=1;endSize=12;startSize=12;endArrow=none;endFill=0;startArrow=none;startFill=0;fillColor=#f5f5f5;strokeColor=#666666;" parent="1" source="4DnISz4H8bsxrKkeKpQ8-1" target="LDexY0KFkXr89QH4B6B5-4" edge="1">
          <mxGeometry relative="1" as="geometry" />
        </mxCell>
        <mxCell id="4DnISz4H8bsxrKkeKpQ8-11" style="rounded=0;orthogonalLoop=1;jettySize=auto;html=1;endSize=12;startSize=12;endArrow=none;endFill=0;startArrow=none;startFill=0;fillColor=#f5f5f5;strokeColor=#666666;" parent="1" source="4DnISz4H8bsxrKkeKpQ8-1" target="LDexY0KFkXr89QH4B6B5-10" edge="1">
          <mxGeometry relative="1" as="geometry" />
        </mxCell>
        <mxCell id="4DnISz4H8bsxrKkeKpQ8-1" value="Order" style="swimlane;fontStyle=1;align=center;verticalAlign=top;childLayout=stackLayout;horizontal=1;startSize=30;horizontalStack=0;resizeParent=1;resizeParentMax=0;resizeLast=0;collapsible=1;marginBottom=0;fillColor=#e1d5e7;strokeColor=#9673a6;rounded=1;" parent="1" vertex="1">
          <mxGeometry x="205" y="1777" width="490" height="168" as="geometry" />
        </mxCell>
        <mxCell id="4DnISz4H8bsxrKkeKpQ8-2" value="- DishType: DishType" style="text;strokeColor=none;fillColor=none;align=left;verticalAlign=top;spacingLeft=4;spacingRight=4;overflow=hidden;rotatable=0;points=[[0,0.5],[1,0.5]];portConstraint=eastwest;fontFamily=Hack Nerd Font Mono;" parent="4DnISz4H8bsxrKkeKpQ8-1" vertex="1">
          <mxGeometry y="30" width="490" height="26" as="geometry" />
        </mxCell>
        <mxCell id="4DnISz4H8bsxrKkeKpQ8-3" value="- Addition?: List&lt;Addition&gt;" style="text;strokeColor=none;fillColor=none;align=left;verticalAlign=top;spacingLeft=4;spacingRight=4;overflow=hidden;rotatable=0;points=[[0,0.5],[1,0.5]];portConstraint=eastwest;fontFamily=Hack Nerd Font Mono;" parent="4DnISz4H8bsxrKkeKpQ8-1" vertex="1">
          <mxGeometry y="56" width="490" height="26" as="geometry" />
        </mxCell>
        <mxCell id="4DnISz4H8bsxrKkeKpQ8-4" value="- Size: Size" style="text;strokeColor=none;fillColor=none;align=left;verticalAlign=top;spacingLeft=4;spacingRight=4;overflow=hidden;rotatable=0;points=[[0,0.5],[1,0.5]];portConstraint=eastwest;fontFamily=Hack Nerd Font Mono;" parent="4DnISz4H8bsxrKkeKpQ8-1" vertex="1">
          <mxGeometry y="82" width="490" height="26" as="geometry" />
        </mxCell>
        <mxCell id="4DnISz4H8bsxrKkeKpQ8-5" value="" style="line;strokeWidth=1;fillColor=none;align=left;verticalAlign=middle;spacingTop=-1;spacingLeft=3;spacingRight=3;rotatable=0;labelPosition=right;points=[];portConstraint=eastwest;strokeColor=inherit;" parent="4DnISz4H8bsxrKkeKpQ8-1" vertex="1">
          <mxGeometry y="108" width="490" height="8" as="geometry" />
        </mxCell>
        <mxCell id="4DnISz4H8bsxrKkeKpQ8-6" value="+ Order(dishType: DishType, additions: List&lt;Addition&gt;, size: Size)" style="text;strokeColor=none;fillColor=none;align=left;verticalAlign=top;spacingLeft=4;spacingRight=4;overflow=hidden;rotatable=0;points=[[0,0.5],[1,0.5]];portConstraint=eastwest;fontFamily=Hack Nerd Font Mono;" parent="4DnISz4H8bsxrKkeKpQ8-1" vertex="1">
          <mxGeometry y="116" width="490" height="26" as="geometry" />
        </mxCell>
        <mxCell id="4DnISz4H8bsxrKkeKpQ8-7" value="+ ToString(): String" style="text;strokeColor=none;fillColor=none;align=left;verticalAlign=top;spacingLeft=4;spacingRight=4;overflow=hidden;rotatable=0;points=[[0,0.5],[1,0.5]];portConstraint=eastwest;fontFamily=Hack Nerd Font Mono;" parent="4DnISz4H8bsxrKkeKpQ8-1" vertex="1">
          <mxGeometry y="142" width="490" height="26" as="geometry" />
        </mxCell>
        <mxCell id="PIRNbn0clkH9RhagaV5q-7" style="rounded=0;orthogonalLoop=1;jettySize=auto;html=1;fillColor=#f5f5f5;strokeColor=#666666;endArrow=open;endFill=0;startArrow=none;startFill=0;endSize=12;startSize=12;" parent="1" source="PIRNbn0clkH9RhagaV5q-1" target="TW_rl-cKZGG9wxfYgXkC-1" edge="1">
          <mxGeometry relative="1" as="geometry" />
        </mxCell>
        <mxCell id="PIRNbn0clkH9RhagaV5q-1" value="Program" style="swimlane;fontStyle=1;align=center;verticalAlign=top;childLayout=stackLayout;horizontal=1;startSize=30;horizontalStack=0;resizeParent=1;resizeParentMax=0;resizeLast=0;collapsible=1;marginBottom=0;fillColor=#e1d5e7;strokeColor=#9673a6;rounded=1;" parent="1" vertex="1">
          <mxGeometry x="350" y="2240" width="200" height="78" as="geometry" />
        </mxCell>
        <mxCell id="ubTWLWvV7-XKBuOC8oWH-1" value="" style="text;strokeColor=none;fillColor=none;align=left;verticalAlign=middle;spacingTop=-1;spacingLeft=4;spacingRight=4;rotatable=0;labelPosition=right;points=[];portConstraint=eastwest;" vertex="1" parent="PIRNbn0clkH9RhagaV5q-1">
          <mxGeometry y="30" width="200" height="14" as="geometry" />
        </mxCell>
        <mxCell id="PIRNbn0clkH9RhagaV5q-5" value="" style="line;strokeWidth=1;fillColor=none;align=left;verticalAlign=middle;spacingTop=-1;spacingLeft=3;spacingRight=3;rotatable=0;labelPosition=right;points=[];portConstraint=eastwest;strokeColor=inherit;" parent="PIRNbn0clkH9RhagaV5q-1" vertex="1">
          <mxGeometry y="44" width="200" height="8" as="geometry" />
        </mxCell>
        <mxCell id="PIRNbn0clkH9RhagaV5q-6" value="+ Main()" style="text;strokeColor=none;fillColor=none;align=left;verticalAlign=top;spacingLeft=4;spacingRight=4;overflow=hidden;rotatable=0;points=[[0,0.5],[1,0.5]];portConstraint=eastwest;fontFamily=Hack Nerd Font Mono;fontStyle=4" parent="PIRNbn0clkH9RhagaV5q-1" vertex="1">
          <mxGeometry y="52" width="200" height="26" as="geometry" />
        </mxCell>
      </root>
    </mxGraphModel>
  </diagram>
</mxfile>
